<svg xmlns="http://www.w3.org/2000/svg" xmlns:xlink="http://www.w3.org/1999/xlink" width="500" zoomAndPan="magnify" viewBox="0 0 375 374.999991" height="500" preserveAspectRatio="xMidYMid meet" version="1.0"><defs><g/><clipPath id="2dbf328327"><path d="M 140 93 L 235 93 L 235 218.972656 L 140 218.972656 Z M 140 93 " clip-rule="nonzero"/></clipPath></defs><g clip-path="url(#2dbf328327)"><path fill="#701292" d="M 201.75 143.394531 C 199.597656 143.394531 197.839844 141.671875 197.839844 139.519531 L 197.839844 129.621094 L 173.230469 129.621094 L 173.230469 114.070312 C 173.230469 106.246094 179.621094 99.871094 187.492188 99.871094 C 195.359375 99.871094 201.75 106.246094 201.75 114.070312 C 201.75 127.796875 201.75 134.894531 201.75 143.394531 Z M 234.15625 205.847656 L 227.265625 138.996094 C 226.714844 133.671875 222.226562 129.621094 216.863281 129.621094 L 208.015625 129.621094 L 208.015625 114.820312 C 208.015625 103.945312 199.820312 94.421875 188.945312 93.671875 C 176.988281 92.847656 166.964844 102.320312 166.964844 114.070312 L 166.964844 129.621094 L 158.117188 129.621094 C 152.753906 129.621094 148.269531 133.671875 147.71875 138.996094 L 140.824219 205.847656 C 140.097656 212.769531 145.5625 218.796875 152.53125 218.796875 L 165.234375 218.796875 C 165.234375 218.796875 165.386719 218.796875 165.660156 218.796875 C 169.871094 218.796875 204.359375 217.671875 206.335938 180.394531 C 206.414062 179.144531 208.09375 178.847656 208.542969 179.996094 C 211.574219 187.546875 216.035156 202.945312 208.894531 216.472656 C 208.316406 217.546875 209.121094 218.820312 210.324219 218.820312 L 222.425781 218.820312 C 229.417969 218.796875 234.882812 212.796875 234.15625 205.847656 Z M 234.15625 205.847656 " fill-opacity="1" fill-rule="nonzero"/></g><g fill="#272424" fill-opacity="1"><g transform="translate(91.531851, 259.589337)"><g><path d="M 8.3125 0 L 2.375 0 L 2.375 -23.75 L 8.3125 -23.75 Z M 8.3125 0 "/></g></g></g><g fill="#272424" fill-opacity="1"><g transform="translate(101.536282, 259.589337)"><g><path d="M 12.171875 -18.078125 C 13.554688 -18.078125 14.785156 -17.753906 15.859375 -17.109375 C 16.929688 -16.460938 17.769531 -15.570312 18.375 -14.4375 C 18.988281 -13.3125 19.296875 -12.023438 19.296875 -10.578125 L 19.296875 0 L 13.640625 0 L 13.640625 -9.359375 C 13.640625 -10.472656 13.375 -11.351562 12.84375 -12 C 12.3125 -12.65625 11.554688 -12.984375 10.578125 -12.984375 C 9.628906 -12.984375 8.851562 -12.648438 8.25 -11.984375 C 7.65625 -11.316406 7.359375 -10.441406 7.359375 -9.359375 L 7.359375 0 L 1.703125 0 L 1.703125 -17.640625 L 6.953125 -17.640625 L 6.953125 -15.9375 C 8.359375 -17.363281 10.097656 -18.078125 12.171875 -18.078125 Z M 12.171875 -18.078125 "/></g></g></g><g fill="#272424" fill-opacity="1"><g transform="translate(121.681003, 259.589337)"><g><path d="M 10.6875 -20.6875 C 9.851562 -20.6875 9.203125 -20.445312 8.734375 -19.96875 C 8.273438 -19.5 8.046875 -18.847656 8.046875 -18.015625 L 8.046875 -17.640625 L 12.078125 -17.640625 L 12.078125 -16.96875 L 8.046875 -16.96875 L 8.046875 0 L 2.375 0 L 2.375 -16.96875 L -0.515625 -16.96875 L -0.515625 -17.640625 L 2.375 -17.640625 L 2.375 -18.796875 C 2.375 -20.867188 2.941406 -22.492188 4.078125 -23.671875 C 5.222656 -24.847656 6.847656 -25.4375 8.953125 -25.4375 L 12.078125 -25.4375 L 12.078125 -20.6875 Z M 10.6875 -20.6875 "/></g></g></g><g fill="#272424" fill-opacity="1"><g transform="translate(132.228057, 259.589337)"><g><path d="M 7.359375 0 L 1.703125 0 L 1.703125 -17.640625 L 7.359375 -17.640625 Z M 7.359375 -20.859375 L 1.6875 -20.859375 L 1.6875 -21.875 L 7.359375 -21.875 Z M 7.359375 -20.859375 "/></g></g></g><g fill="#272424" fill-opacity="1"><g transform="translate(140.604611, 259.589337)"><g><path d="M 12.171875 -18.078125 C 13.554688 -18.078125 14.785156 -17.753906 15.859375 -17.109375 C 16.929688 -16.460938 17.769531 -15.570312 18.375 -14.4375 C 18.988281 -13.3125 19.296875 -12.023438 19.296875 -10.578125 L 19.296875 0 L 13.640625 0 L 13.640625 -9.359375 C 13.640625 -10.472656 13.375 -11.351562 12.84375 -12 C 12.3125 -12.65625 11.554688 -12.984375 10.578125 -12.984375 C 9.628906 -12.984375 8.851562 -12.648438 8.25 -11.984375 C 7.65625 -11.316406 7.359375 -10.441406 7.359375 -9.359375 L 7.359375 0 L 1.703125 0 L 1.703125 -17.640625 L 6.953125 -17.640625 L 6.953125 -15.9375 C 8.359375 -17.363281 10.097656 -18.078125 12.171875 -18.078125 Z M 12.171875 -18.078125 "/></g></g></g><g fill="#272424" fill-opacity="1"><g transform="translate(160.74933, 259.589337)"><g><path d="M 7.359375 0 L 1.703125 0 L 1.703125 -17.640625 L 7.359375 -17.640625 Z M 7.359375 -20.859375 L 1.6875 -20.859375 L 1.6875 -21.875 L 7.359375 -21.875 Z M 7.359375 -20.859375 "/></g></g></g><g fill="#272424" fill-opacity="1"><g transform="translate(169.125884, 259.589337)"><g><path d="M 11.90625 -16.96875 L 7.875 -16.96875 L 7.875 -7.765625 C 7.875 -6.929688 8.101562 -6.273438 8.5625 -5.796875 C 9.03125 -5.328125 9.679688 -5.09375 10.515625 -5.09375 L 11.90625 -5.09375 L 11.90625 0 L 8.78125 0 C 6.675781 0 5.050781 -0.585938 3.90625 -1.765625 C 2.769531 -2.941406 2.203125 -4.570312 2.203125 -6.65625 L 2.203125 -16.96875 L -0.671875 -16.96875 L -0.671875 -17.640625 L 2.203125 -17.640625 L 2.203125 -22.328125 L 7.875 -22.328125 L 7.875 -17.640625 L 11.90625 -17.640625 Z M 11.90625 -16.96875 "/></g></g></g><g fill="#272424" fill-opacity="1"><g transform="translate(180.520783, 259.589337)"><g><path d="M 10.078125 -7.90625 L 14.25 -17.640625 L 20.109375 -17.640625 L 9.234375 6.78125 L 3.5625 6.78125 L 7.265625 -1.5625 L -0.265625 -17.640625 L 5.796875 -17.640625 Z M 10.078125 -7.90625 "/></g></g></g><g fill="#272424" fill-opacity="1"><g transform="translate(199.851569, 259.589337)"><g><path d="M 10.109375 0.4375 C 7.253906 0.4375 4.960938 -0.296875 3.234375 -1.765625 C 1.503906 -3.234375 0.617188 -5.359375 0.578125 -8.140625 L 6.4375 -8.140625 C 6.507812 -5.585938 7.722656 -4.3125 10.078125 -4.3125 C 11.085938 -4.3125 11.851562 -4.515625 12.375 -4.921875 C 12.894531 -5.328125 13.15625 -5.878906 13.15625 -6.578125 C 13.15625 -7.117188 12.96875 -7.578125 12.59375 -7.953125 C 12.226562 -8.328125 11.765625 -8.632812 11.203125 -8.875 C 10.648438 -9.113281 9.84375 -9.410156 8.78125 -9.765625 C 7.195312 -10.285156 5.90625 -10.796875 4.90625 -11.296875 C 3.914062 -11.796875 3.050781 -12.539062 2.3125 -13.53125 C 1.582031 -14.53125 1.21875 -15.820312 1.21875 -17.40625 C 1.21875 -18.71875 1.582031 -19.882812 2.3125 -20.90625 C 3.050781 -21.9375 4.082031 -22.738281 5.40625 -23.3125 C 6.726562 -23.894531 8.238281 -24.1875 9.9375 -24.1875 C 11.476562 -24.1875 12.921875 -23.894531 14.265625 -23.3125 C 15.609375 -22.738281 16.703125 -21.847656 17.546875 -20.640625 C 18.398438 -19.429688 18.835938 -17.921875 18.859375 -16.109375 L 13.09375 -16.109375 C 13.070312 -17.128906 12.800781 -17.9375 12.28125 -18.53125 C 11.757812 -19.132812 10.976562 -19.4375 9.9375 -19.4375 C 9.101562 -19.4375 8.445312 -19.238281 7.96875 -18.84375 C 7.5 -18.445312 7.265625 -17.921875 7.265625 -17.265625 C 7.265625 -16.492188 7.609375 -15.90625 8.296875 -15.5 C 8.984375 -15.09375 10.070312 -14.648438 11.5625 -14.171875 C 13.144531 -13.660156 14.445312 -13.148438 15.46875 -12.640625 C 16.488281 -12.128906 17.363281 -11.367188 18.09375 -10.359375 C 18.832031 -9.359375 19.203125 -8.050781 19.203125 -6.4375 C 19.203125 -5.175781 18.84375 -4.023438 18.125 -2.984375 C 17.414062 -1.941406 16.375 -1.109375 15 -0.484375 C 13.632812 0.128906 12.003906 0.4375 10.109375 0.4375 Z M 10.109375 0.4375 "/></g></g></g><g fill="#272424" fill-opacity="1"><g transform="translate(218.944959, 259.589337)"><g><path d="M 11.90625 -16.96875 L 7.875 -16.96875 L 7.875 -7.765625 C 7.875 -6.929688 8.101562 -6.273438 8.5625 -5.796875 C 9.03125 -5.328125 9.679688 -5.09375 10.515625 -5.09375 L 11.90625 -5.09375 L 11.90625 0 L 8.78125 0 C 6.675781 0 5.050781 -0.585938 3.90625 -1.765625 C 2.769531 -2.941406 2.203125 -4.570312 2.203125 -6.65625 L 2.203125 -16.96875 L -0.671875 -16.96875 L -0.671875 -17.640625 L 2.203125 -17.640625 L 2.203125 -22.328125 L 7.875 -22.328125 L 7.875 -17.640625 L 11.90625 -17.640625 Z M 11.90625 -16.96875 "/></g></g></g><g fill="#272424" fill-opacity="1"><g transform="translate(230.339864, 259.589337)"><g><path d="M 10.375 0.4375 C 8.707031 0.4375 7.117188 0.0625 5.609375 -0.6875 C 4.109375 -1.445312 2.898438 -2.523438 1.984375 -3.921875 C 1.066406 -5.328125 0.609375 -6.957031 0.609375 -8.8125 C 0.609375 -10.664062 1.066406 -12.296875 1.984375 -13.703125 C 2.898438 -15.109375 4.109375 -16.1875 5.609375 -16.9375 C 7.117188 -17.695312 8.707031 -18.078125 10.375 -18.078125 C 12.050781 -18.078125 13.640625 -17.695312 15.140625 -16.9375 C 16.648438 -16.1875 17.863281 -15.109375 18.78125 -13.703125 C 19.695312 -12.296875 20.15625 -10.664062 20.15625 -8.8125 C 20.15625 -6.957031 19.695312 -5.328125 18.78125 -3.921875 C 17.863281 -2.523438 16.648438 -1.445312 15.140625 -0.6875 C 13.640625 0.0625 12.050781 0.4375 10.375 0.4375 Z M 10.375 -4.640625 C 11.550781 -4.640625 12.53125 -5.035156 13.3125 -5.828125 C 14.09375 -6.617188 14.484375 -7.613281 14.484375 -8.8125 C 14.484375 -10.019531 14.09375 -11.015625 13.3125 -11.796875 C 12.53125 -12.585938 11.550781 -12.984375 10.375 -12.984375 C 9.195312 -12.984375 8.21875 -12.585938 7.4375 -11.796875 C 6.664062 -11.015625 6.28125 -10.019531 6.28125 -8.8125 C 6.28125 -7.613281 6.664062 -6.617188 7.4375 -5.828125 C 8.21875 -5.035156 9.195312 -4.640625 10.375 -4.640625 Z M 10.375 -4.640625 "/></g></g></g><g fill="#272424" fill-opacity="1"><g transform="translate(250.41676, 259.589337)"><g><path d="M 13.765625 -17.875 L 13.765625 -12.78125 L 11.5 -12.78125 C 10.34375 -12.78125 9.363281 -12.390625 8.5625 -11.609375 C 7.757812 -10.835938 7.359375 -9.851562 7.359375 -8.65625 L 7.359375 0 L 1.703125 0 L 1.703125 -17.640625 L 6.953125 -17.640625 L 6.953125 -15.734375 C 8.359375 -17.160156 10.164062 -17.875 12.375 -17.875 Z M 13.765625 -17.875 "/></g></g></g><g fill="#272424" fill-opacity="1"><g transform="translate(263.337802, 259.589337)"><g><path d="M 10.109375 -18.078125 C 11.867188 -18.078125 13.476562 -17.65625 14.9375 -16.8125 C 16.394531 -15.976562 17.535156 -14.84375 18.359375 -13.40625 C 19.191406 -11.976562 19.570312 -10.394531 19.5 -8.65625 L 6.28125 -8.65625 C 6.300781 -7.289062 6.660156 -6.222656 7.359375 -5.453125 C 8.054688 -4.691406 8.992188 -4.3125 10.171875 -4.3125 C 10.941406 -4.3125 11.625 -4.476562 12.21875 -4.8125 C 12.820312 -5.15625 13.304688 -5.644531 13.671875 -6.28125 L 19.234375 -6.28125 C 18.554688 -4.125 17.441406 -2.460938 15.890625 -1.296875 C 14.335938 -0.140625 12.410156 0.4375 10.109375 0.4375 C 8.410156 0.4375 6.835938 0.0546875 5.390625 -0.703125 C 3.941406 -1.472656 2.78125 -2.5625 1.90625 -3.96875 C 1.039062 -5.375 0.609375 -6.988281 0.609375 -8.8125 C 0.609375 -10.644531 1.039062 -12.265625 1.90625 -13.671875 C 2.78125 -15.078125 3.941406 -16.160156 5.390625 -16.921875 C 6.835938 -17.691406 8.410156 -18.078125 10.109375 -18.078125 Z M 10.109375 -13.328125 C 9.023438 -13.328125 8.132812 -12.976562 7.4375 -12.28125 C 6.75 -11.582031 6.363281 -10.597656 6.28125 -9.328125 L 13.9375 -9.328125 C 13.875 -10.523438 13.507812 -11.488281 12.84375 -12.21875 C 12.175781 -12.957031 11.265625 -13.328125 10.109375 -13.328125 Z M 10.109375 -13.328125 "/></g></g></g></svg>