<svg xmlns="http://www.w3.org/2000/svg" xmlns:xlink="http://www.w3.org/1999/xlink" width="500" zoomAndPan="magnify" viewBox="0 0 375 374.999991" height="500" preserveAspectRatio="xMidYMid meet" version="1.0"><defs><g/><clipPath id="ccf56f9f70"><path d="M 127 153 L 186 153 L 186 200 L 127 200 Z M 127 153 " clip-rule="nonzero"/></clipPath><clipPath id="8f4e4c93de"><path d="M 182.648438 153.429688 L 172.972656 153.429688 C 172.652344 153.429688 172.34375 153.492188 172.046875 153.613281 C 171.75 153.738281 171.488281 153.914062 171.261719 154.140625 C 171.035156 154.367188 170.859375 154.628906 170.738281 154.925781 C 170.613281 155.21875 170.554688 155.527344 170.554688 155.851562 C 170.554688 156.171875 170.613281 156.480469 170.738281 156.777344 C 170.859375 157.070312 171.035156 157.332031 171.261719 157.558594 C 171.488281 157.785156 171.75 157.960938 172.046875 158.085938 C 172.34375 158.207031 172.652344 158.269531 172.972656 158.269531 L 175.390625 158.269531 L 175.390625 175.199219 C 175.390625 175.835938 175.359375 176.464844 175.296875 177.097656 C 175.234375 177.726562 175.140625 178.355469 175.019531 178.976562 C 174.894531 179.597656 174.742188 180.210938 174.558594 180.816406 C 174.375 181.425781 174.160156 182.019531 173.917969 182.605469 C 173.675781 183.191406 173.40625 183.765625 173.105469 184.324219 C 172.808594 184.882812 172.480469 185.425781 172.128906 185.953125 C 171.777344 186.476562 171.398438 186.988281 171 187.476562 C 170.597656 187.964844 170.171875 188.4375 169.722656 188.882812 C 169.273438 189.332031 168.804688 189.757812 168.316406 190.160156 C 167.824219 190.5625 167.316406 190.9375 166.789062 191.289062 C 166.261719 191.640625 165.71875 191.96875 165.160156 192.265625 C 164.601562 192.566406 164.03125 192.835938 163.445312 193.078125 C 162.859375 193.320312 162.261719 193.535156 161.65625 193.71875 C 161.050781 193.902344 160.4375 194.054688 159.816406 194.179688 C 159.191406 194.304688 158.566406 194.394531 157.9375 194.457031 C 157.304688 194.519531 156.671875 194.550781 156.039062 194.550781 C 155.40625 194.550781 154.773438 194.519531 154.144531 194.457031 C 153.511719 194.394531 152.886719 194.304688 152.265625 194.179688 C 151.644531 194.054688 151.027344 193.902344 150.421875 193.71875 C 149.816406 193.535156 149.21875 193.320312 148.632812 193.078125 C 148.046875 192.835938 147.476562 192.566406 146.917969 192.265625 C 146.359375 191.96875 145.816406 191.640625 145.289062 191.289062 C 144.761719 190.9375 144.253906 190.5625 143.761719 190.160156 C 143.273438 189.757812 142.804688 189.332031 142.355469 188.882812 C 141.910156 188.4375 141.484375 187.964844 141.082031 187.476562 C 140.679688 186.988281 140.300781 186.476562 139.949219 185.953125 C 139.597656 185.425781 139.273438 184.882812 138.972656 184.324219 C 138.675781 183.765625 138.402344 183.191406 138.160156 182.605469 C 137.917969 182.019531 137.707031 181.425781 137.523438 180.816406 C 137.339844 180.210938 137.183594 179.597656 137.058594 178.976562 C 136.9375 178.355469 136.84375 177.726562 136.78125 177.097656 C 136.71875 176.464844 136.6875 175.835938 136.6875 175.199219 L 136.6875 158.269531 L 139.109375 158.269531 C 139.429688 158.269531 139.738281 158.207031 140.03125 158.085938 C 140.328125 157.960938 140.589844 157.785156 140.816406 157.558594 C 141.042969 157.332031 141.21875 157.070312 141.34375 156.777344 C 141.464844 156.480469 141.527344 156.171875 141.527344 155.851562 C 141.527344 155.527344 141.464844 155.21875 141.34375 154.925781 C 141.21875 154.628906 141.042969 154.367188 140.816406 154.140625 C 140.589844 153.914062 140.328125 153.738281 140.03125 153.613281 C 139.738281 153.492188 139.429688 153.429688 139.109375 153.429688 L 129.433594 153.429688 C 129.109375 153.429688 128.804688 153.492188 128.507812 153.613281 C 128.210938 153.738281 127.949219 153.914062 127.722656 154.140625 C 127.496094 154.367188 127.320312 154.628906 127.199219 154.925781 C 127.074219 155.21875 127.011719 155.527344 127.011719 155.851562 C 127.011719 156.171875 127.074219 156.480469 127.199219 156.777344 C 127.320312 157.070312 127.496094 157.332031 127.722656 157.558594 C 127.949219 157.785156 128.210938 157.960938 128.507812 158.085938 C 128.804688 158.207031 129.109375 158.269531 129.433594 158.269531 L 131.851562 158.269531 L 131.851562 175.199219 C 131.851562 175.992188 131.890625 176.785156 131.96875 177.570312 C 132.046875 178.359375 132.160156 179.144531 132.316406 179.917969 C 132.46875 180.695312 132.664062 181.464844 132.890625 182.222656 C 133.121094 182.980469 133.390625 183.726562 133.691406 184.457031 C 133.996094 185.1875 134.332031 185.90625 134.707031 186.601562 C 135.082031 187.300781 135.488281 187.980469 135.925781 188.640625 C 136.367188 189.296875 136.839844 189.933594 137.339844 190.546875 C 137.84375 191.160156 138.375 191.746094 138.9375 192.304688 C 139.496094 192.863281 140.082031 193.394531 140.695312 193.898438 C 141.308594 194.402344 141.941406 194.871094 142.601562 195.3125 C 143.261719 195.753906 143.9375 196.160156 144.636719 196.535156 C 145.335938 196.90625 146.050781 197.246094 146.78125 197.546875 C 147.515625 197.851562 148.261719 198.117188 149.019531 198.347656 C 149.777344 198.578125 150.542969 198.769531 151.320312 198.925781 C 152.097656 199.078125 152.878906 199.195312 153.667969 199.273438 C 154.457031 199.351562 155.246094 199.390625 156.039062 199.390625 C 156.832031 199.390625 157.621094 199.351562 158.410156 199.273438 C 159.199219 199.195312 159.980469 199.078125 160.757812 198.925781 C 161.535156 198.769531 162.304688 198.578125 163.0625 198.347656 C 163.820312 198.117188 164.5625 197.851562 165.296875 197.546875 C 166.027344 197.246094 166.742188 196.90625 167.441406 196.535156 C 168.140625 196.160156 168.820312 195.753906 169.476562 195.3125 C 170.136719 194.871094 170.773438 194.402344 171.382812 193.898438 C 171.996094 193.394531 172.582031 192.863281 173.144531 192.304688 C 173.703125 191.746094 174.234375 191.160156 174.738281 190.546875 C 175.242188 189.933594 175.710938 189.296875 176.152344 188.640625 C 176.59375 187.980469 177 187.300781 177.371094 186.601562 C 177.746094 185.90625 178.082031 185.1875 178.386719 184.457031 C 178.691406 183.726562 178.957031 182.980469 179.1875 182.222656 C 179.417969 181.464844 179.609375 180.695312 179.761719 179.917969 C 179.917969 179.144531 180.035156 178.359375 180.113281 177.570312 C 180.1875 176.785156 180.226562 175.992188 180.226562 175.199219 L 180.226562 158.269531 L 182.648438 158.269531 C 182.96875 158.269531 183.277344 158.207031 183.574219 158.085938 C 183.867188 157.960938 184.128906 157.785156 184.359375 157.558594 C 184.585938 157.332031 184.757812 157.070312 184.882812 156.777344 C 185.003906 156.480469 185.066406 156.171875 185.066406 155.851562 C 185.066406 155.527344 185.003906 155.21875 184.882812 154.925781 C 184.757812 154.628906 184.585938 154.367188 184.359375 154.140625 C 184.128906 153.914062 183.867188 153.738281 183.574219 153.613281 C 183.277344 153.492188 182.96875 153.429688 182.648438 153.429688 Z M 182.648438 153.429688 " clip-rule="nonzero"/></clipPath><linearGradient x1="51.442514" gradientTransform="matrix(0.302358, 0, 0, 0.302358, 110.081133, 78.446108)" y1="395.442485" x2="223.442512" gradientUnits="userSpaceOnUse" y2="223.442483" id="348bb34a26"><stop stop-opacity="1" stop-color="rgb(48.347473%, 24.565125%, 81.207275%)" offset="0"/><stop stop-opacity="1" stop-color="rgb(48.28949%, 24.497986%, 81.040955%)" offset="0.0078125"/><stop stop-opacity="1" stop-color="rgb(48.173523%, 24.362183%, 80.709839%)" offset="0.015625"/><stop stop-opacity="1" stop-color="rgb(48.057556%, 24.227905%, 80.377197%)" offset="0.0234375"/><stop stop-opacity="1" stop-color="rgb(47.941589%, 24.092102%, 80.044556%)" offset="0.03125"/><stop stop-opacity="1" stop-color="rgb(47.825623%, 23.957825%, 79.71344%)" offset="0.0390625"/><stop stop-opacity="1" stop-color="rgb(47.709656%, 23.823547%, 79.380798%)" offset="0.046875"/><stop stop-opacity="1" stop-color="rgb(47.593689%, 23.687744%, 79.048157%)" offset="0.0546875"/><stop stop-opacity="1" stop-color="rgb(47.477722%, 23.553467%, 78.717041%)" offset="0.0625"/><stop stop-opacity="1" stop-color="rgb(47.363281%, 23.417664%, 78.384399%)" offset="0.0703125"/><stop stop-opacity="1" stop-color="rgb(47.247314%, 23.283386%, 78.053284%)" offset="0.078125"/><stop stop-opacity="1" stop-color="rgb(47.131348%, 23.149109%, 77.720642%)" offset="0.0859375"/><stop stop-opacity="1" stop-color="rgb(47.015381%, 23.013306%, 77.388%)" offset="0.09375"/><stop stop-opacity="1" stop-color="rgb(46.899414%, 22.879028%, 77.056885%)" offset="0.101563"/><stop stop-opacity="1" stop-color="rgb(46.783447%, 22.743225%, 76.724243%)" offset="0.109375"/><stop stop-opacity="1" stop-color="rgb(46.66748%, 22.608948%, 76.391602%)" offset="0.117188"/><stop stop-opacity="1" stop-color="rgb(46.551514%, 22.473145%, 76.060486%)" offset="0.125"/><stop stop-opacity="1" stop-color="rgb(46.437073%, 22.338867%, 75.727844%)" offset="0.132813"/><stop stop-opacity="1" stop-color="rgb(46.321106%, 22.20459%, 75.396729%)" offset="0.140625"/><stop stop-opacity="1" stop-color="rgb(46.205139%, 22.068787%, 75.064087%)" offset="0.148438"/><stop stop-opacity="1" stop-color="rgb(46.089172%, 21.934509%, 74.731445%)" offset="0.15625"/><stop stop-opacity="1" stop-color="rgb(45.973206%, 21.798706%, 74.40033%)" offset="0.164063"/><stop stop-opacity="1" stop-color="rgb(45.857239%, 21.664429%, 74.067688%)" offset="0.171875"/><stop stop-opacity="1" stop-color="rgb(45.741272%, 21.530151%, 73.736572%)" offset="0.179688"/><stop stop-opacity="1" stop-color="rgb(45.625305%, 21.394348%, 73.403931%)" offset="0.1875"/><stop stop-opacity="1" stop-color="rgb(45.509338%, 21.260071%, 73.071289%)" offset="0.195313"/><stop stop-opacity="1" stop-color="rgb(45.394897%, 21.124268%, 72.740173%)" offset="0.203125"/><stop stop-opacity="1" stop-color="rgb(45.278931%, 20.98999%, 72.407532%)" offset="0.210938"/><stop stop-opacity="1" stop-color="rgb(45.162964%, 20.855713%, 72.07489%)" offset="0.21875"/><stop stop-opacity="1" stop-color="rgb(45.046997%, 20.71991%, 71.743774%)" offset="0.226563"/><stop stop-opacity="1" stop-color="rgb(44.93103%, 20.585632%, 71.411133%)" offset="0.234375"/><stop stop-opacity="1" stop-color="rgb(44.815063%, 20.449829%, 71.080017%)" offset="0.242188"/><stop stop-opacity="1" stop-color="rgb(44.699097%, 20.315552%, 70.747375%)" offset="0.25"/><stop stop-opacity="1" stop-color="rgb(44.58313%, 20.181274%, 70.414734%)" offset="0.257813"/><stop stop-opacity="1" stop-color="rgb(44.468689%, 20.045471%, 70.083618%)" offset="0.265625"/><stop stop-opacity="1" stop-color="rgb(44.352722%, 19.911194%, 69.750977%)" offset="0.273438"/><stop stop-opacity="1" stop-color="rgb(44.236755%, 19.775391%, 69.418335%)" offset="0.28125"/><stop stop-opacity="1" stop-color="rgb(44.120789%, 19.641113%, 69.087219%)" offset="0.289063"/><stop stop-opacity="1" stop-color="rgb(44.004822%, 19.50531%, 68.754578%)" offset="0.296875"/><stop stop-opacity="1" stop-color="rgb(43.888855%, 19.371033%, 68.423462%)" offset="0.304688"/><stop stop-opacity="1" stop-color="rgb(43.772888%, 19.236755%, 68.09082%)" offset="0.3125"/><stop stop-opacity="1" stop-color="rgb(43.656921%, 19.100952%, 67.758179%)" offset="0.320313"/><stop stop-opacity="1" stop-color="rgb(43.54248%, 18.966675%, 67.427063%)" offset="0.328125"/><stop stop-opacity="1" stop-color="rgb(43.426514%, 18.830872%, 67.094421%)" offset="0.335938"/><stop stop-opacity="1" stop-color="rgb(43.310547%, 18.696594%, 66.763306%)" offset="0.34375"/><stop stop-opacity="1" stop-color="rgb(43.19458%, 18.562317%, 66.430664%)" offset="0.351563"/><stop stop-opacity="1" stop-color="rgb(43.078613%, 18.426514%, 66.098022%)" offset="0.359375"/><stop stop-opacity="1" stop-color="rgb(42.962646%, 18.292236%, 65.766907%)" offset="0.367188"/><stop stop-opacity="1" stop-color="rgb(42.84668%, 18.156433%, 65.434265%)" offset="0.375"/><stop stop-opacity="1" stop-color="rgb(42.730713%, 18.022156%, 65.101624%)" offset="0.382813"/><stop stop-opacity="1" stop-color="rgb(42.614746%, 17.887878%, 64.770508%)" offset="0.390625"/><stop stop-opacity="1" stop-color="rgb(42.500305%, 17.752075%, 64.437866%)" offset="0.398438"/><stop stop-opacity="1" stop-color="rgb(42.384338%, 17.617798%, 64.10675%)" offset="0.40625"/><stop stop-opacity="1" stop-color="rgb(42.268372%, 17.481995%, 63.774109%)" offset="0.414063"/><stop stop-opacity="1" stop-color="rgb(42.152405%, 17.347717%, 63.441467%)" offset="0.421875"/><stop stop-opacity="1" stop-color="rgb(42.036438%, 17.21344%, 63.110352%)" offset="0.429688"/><stop stop-opacity="1" stop-color="rgb(41.920471%, 17.077637%, 62.77771%)" offset="0.4375"/><stop stop-opacity="1" stop-color="rgb(41.804504%, 16.943359%, 62.445068%)" offset="0.44186"/><stop stop-opacity="1" stop-color="rgb(41.746521%, 16.876221%, 62.280273%)" offset="0.445312"/><stop stop-opacity="1" stop-color="rgb(41.688538%, 16.807556%, 62.113953%)" offset="0.453125"/><stop stop-opacity="1" stop-color="rgb(41.574097%, 16.673279%, 61.781311%)" offset="0.460938"/><stop stop-opacity="1" stop-color="rgb(41.45813%, 16.539001%, 61.450195%)" offset="0.46875"/><stop stop-opacity="1" stop-color="rgb(41.342163%, 16.403198%, 61.117554%)" offset="0.476563"/><stop stop-opacity="1" stop-color="rgb(41.226196%, 16.268921%, 60.784912%)" offset="0.484375"/><stop stop-opacity="1" stop-color="rgb(41.110229%, 16.133118%, 60.453796%)" offset="0.492188"/><stop stop-opacity="1" stop-color="rgb(40.994263%, 15.99884%, 60.121155%)" offset="0.5"/><stop stop-opacity="1" stop-color="rgb(40.878296%, 15.863037%, 59.790039%)" offset="0.507813"/><stop stop-opacity="1" stop-color="rgb(40.762329%, 15.72876%, 59.457397%)" offset="0.515625"/><stop stop-opacity="1" stop-color="rgb(40.646362%, 15.594482%, 59.124756%)" offset="0.523438"/><stop stop-opacity="1" stop-color="rgb(40.531921%, 15.458679%, 58.79364%)" offset="0.53125"/><stop stop-opacity="1" stop-color="rgb(40.415955%, 15.324402%, 58.460999%)" offset="0.539063"/><stop stop-opacity="1" stop-color="rgb(40.299988%, 15.188599%, 58.128357%)" offset="0.546875"/><stop stop-opacity="1" stop-color="rgb(40.184021%, 15.054321%, 57.797241%)" offset="0.554688"/><stop stop-opacity="1" stop-color="rgb(40.068054%, 14.920044%, 57.4646%)" offset="0.55814"/><stop stop-opacity="1" stop-color="rgb(40.010071%, 14.852905%, 57.299805%)" offset="0.5625"/><stop stop-opacity="1" stop-color="rgb(39.952087%, 14.784241%, 57.133484%)" offset="0.570312"/><stop stop-opacity="1" stop-color="rgb(39.836121%, 14.649963%, 56.800842%)" offset="0.578125"/><stop stop-opacity="1" stop-color="rgb(39.720154%, 14.51416%, 56.468201%)" offset="0.585938"/><stop stop-opacity="1" stop-color="rgb(39.605713%, 14.379883%, 56.137085%)" offset="0.59375"/><stop stop-opacity="1" stop-color="rgb(39.489746%, 14.245605%, 55.804443%)" offset="0.601563"/><stop stop-opacity="1" stop-color="rgb(39.373779%, 14.109802%, 55.471802%)" offset="0.609375"/><stop stop-opacity="1" stop-color="rgb(39.257812%, 13.975525%, 55.140686%)" offset="0.617188"/><stop stop-opacity="1" stop-color="rgb(39.141846%, 13.839722%, 54.808044%)" offset="0.625"/><stop stop-opacity="1" stop-color="rgb(39.025879%, 13.705444%, 54.476929%)" offset="0.632813"/><stop stop-opacity="1" stop-color="rgb(38.909912%, 13.571167%, 54.144287%)" offset="0.640625"/><stop stop-opacity="1" stop-color="rgb(38.793945%, 13.435364%, 53.811646%)" offset="0.648438"/><stop stop-opacity="1" stop-color="rgb(38.679504%, 13.301086%, 53.48053%)" offset="0.65625"/><stop stop-opacity="1" stop-color="rgb(38.563538%, 13.165283%, 53.147888%)" offset="0.664063"/><stop stop-opacity="1" stop-color="rgb(38.447571%, 13.031006%, 52.816772%)" offset="0.671875"/><stop stop-opacity="1" stop-color="rgb(38.331604%, 12.896729%, 52.484131%)" offset="0.679688"/><stop stop-opacity="1" stop-color="rgb(38.215637%, 12.760925%, 52.151489%)" offset="0.6875"/><stop stop-opacity="1" stop-color="rgb(38.09967%, 12.626648%, 51.820374%)" offset="0.695312"/><stop stop-opacity="1" stop-color="rgb(37.983704%, 12.490845%, 51.487732%)" offset="0.703125"/><stop stop-opacity="1" stop-color="rgb(37.867737%, 12.356567%, 51.15509%)" offset="0.710938"/><stop stop-opacity="1" stop-color="rgb(37.75177%, 12.220764%, 50.823975%)" offset="0.71875"/><stop stop-opacity="1" stop-color="rgb(37.637329%, 12.086487%, 50.491333%)" offset="0.726563"/><stop stop-opacity="1" stop-color="rgb(37.521362%, 11.952209%, 50.160217%)" offset="0.734375"/><stop stop-opacity="1" stop-color="rgb(37.405396%, 11.816406%, 49.827576%)" offset="0.742187"/><stop stop-opacity="1" stop-color="rgb(37.289429%, 11.682129%, 49.494934%)" offset="0.75"/><stop stop-opacity="1" stop-color="rgb(37.173462%, 11.546326%, 49.163818%)" offset="0.757813"/><stop stop-opacity="1" stop-color="rgb(37.057495%, 11.412048%, 48.831177%)" offset="0.765625"/><stop stop-opacity="1" stop-color="rgb(36.941528%, 11.277771%, 48.498535%)" offset="0.773438"/><stop stop-opacity="1" stop-color="rgb(36.825562%, 11.141968%, 48.167419%)" offset="0.78125"/><stop stop-opacity="1" stop-color="rgb(36.711121%, 11.00769%, 47.834778%)" offset="0.789062"/><stop stop-opacity="1" stop-color="rgb(36.595154%, 10.871887%, 47.503662%)" offset="0.796875"/><stop stop-opacity="1" stop-color="rgb(36.479187%, 10.73761%, 47.171021%)" offset="0.804688"/><stop stop-opacity="1" stop-color="rgb(36.36322%, 10.603333%, 46.838379%)" offset="0.8125"/><stop stop-opacity="1" stop-color="rgb(36.247253%, 10.467529%, 46.507263%)" offset="0.820312"/><stop stop-opacity="1" stop-color="rgb(36.131287%, 10.333252%, 46.174622%)" offset="0.828125"/><stop stop-opacity="1" stop-color="rgb(36.01532%, 10.197449%, 45.843506%)" offset="0.835938"/><stop stop-opacity="1" stop-color="rgb(35.899353%, 10.063171%, 45.510864%)" offset="0.84375"/><stop stop-opacity="1" stop-color="rgb(35.784912%, 9.928894%, 45.178223%)" offset="0.851562"/><stop stop-opacity="1" stop-color="rgb(35.668945%, 9.793091%, 44.847107%)" offset="0.859375"/><stop stop-opacity="1" stop-color="rgb(35.552979%, 9.658813%, 44.514465%)" offset="0.867187"/><stop stop-opacity="1" stop-color="rgb(35.437012%, 9.52301%, 44.181824%)" offset="0.875"/><stop stop-opacity="1" stop-color="rgb(35.321045%, 9.388733%, 43.850708%)" offset="0.882813"/><stop stop-opacity="1" stop-color="rgb(35.205078%, 9.254456%, 43.518066%)" offset="0.890625"/><stop stop-opacity="1" stop-color="rgb(35.089111%, 9.118652%, 43.186951%)" offset="0.898438"/><stop stop-opacity="1" stop-color="rgb(34.973145%, 8.984375%, 42.854309%)" offset="0.90625"/><stop stop-opacity="1" stop-color="rgb(34.857178%, 8.848572%, 42.521667%)" offset="0.914062"/><stop stop-opacity="1" stop-color="rgb(34.742737%, 8.714294%, 42.190552%)" offset="0.921875"/><stop stop-opacity="1" stop-color="rgb(34.62677%, 8.578491%, 41.85791%)" offset="0.929688"/><stop stop-opacity="1" stop-color="rgb(34.510803%, 8.444214%, 41.525269%)" offset="0.9375"/><stop stop-opacity="1" stop-color="rgb(34.394836%, 8.309937%, 41.194153%)" offset="0.945312"/><stop stop-opacity="1" stop-color="rgb(34.27887%, 8.174133%, 40.861511%)" offset="0.953125"/><stop stop-opacity="1" stop-color="rgb(34.162903%, 8.039856%, 40.530396%)" offset="0.960937"/><stop stop-opacity="1" stop-color="rgb(34.046936%, 7.904053%, 40.197754%)" offset="0.96875"/><stop stop-opacity="1" stop-color="rgb(33.930969%, 7.769775%, 39.865112%)" offset="0.976562"/><stop stop-opacity="1" stop-color="rgb(33.816528%, 7.635498%, 39.533997%)" offset="0.984375"/><stop stop-opacity="1" stop-color="rgb(33.816528%, 7.53479%, 39.389038%)" offset="1"/></linearGradient><clipPath id="922e21153f"><path d="M 112.5 80.910156 L 262.5 80.910156 L 262.5 230.910156 L 112.5 230.910156 Z M 112.5 80.910156 " clip-rule="nonzero"/></clipPath><clipPath id="195c3936c4"><path d="M 257.628906 121.875 C 257.617188 121.566406 257.542969 121.269531 257.414062 120.984375 C 257.285156 120.703125 257.109375 120.453125 256.886719 120.238281 C 256.660156 120.019531 256.402344 119.855469 256.113281 119.738281 C 255.824219 119.625 255.523438 119.566406 255.214844 119.566406 L 235.863281 119.566406 L 235.863281 107.472656 C 235.863281 106.601562 235.820312 105.730469 235.734375 104.863281 C 235.648438 103.996094 235.519531 103.136719 235.351562 102.28125 C 235.179688 101.425781 234.96875 100.582031 234.714844 99.75 C 234.464844 98.914062 234.171875 98.09375 233.835938 97.289062 C 233.503906 96.484375 233.132812 95.699219 232.71875 94.929688 C 232.308594 94.160156 231.863281 93.414062 231.378906 92.691406 C 230.894531 91.964844 230.375 91.265625 229.824219 90.59375 C 229.269531 89.917969 228.683594 89.273438 228.070312 88.65625 C 227.453125 88.042969 226.808594 87.457031 226.132812 86.90625 C 225.460938 86.351562 224.761719 85.832031 224.035156 85.347656 C 223.3125 84.863281 222.566406 84.417969 221.796875 84.007812 C 221.027344 83.597656 220.242188 83.222656 219.4375 82.890625 C 218.632812 82.558594 217.8125 82.261719 216.976562 82.011719 C 216.144531 81.757812 215.300781 81.546875 214.445312 81.375 C 213.589844 81.207031 212.730469 81.078125 211.863281 80.992188 C 210.996094 80.90625 210.125 80.863281 209.253906 80.863281 C 208.382812 80.863281 207.515625 80.90625 206.648438 80.992188 C 205.78125 81.078125 204.917969 81.207031 204.0625 81.375 C 203.210938 81.546875 202.363281 81.757812 201.53125 82.011719 C 200.695312 82.261719 199.878906 82.558594 199.074219 82.890625 C 198.265625 83.222656 197.480469 83.597656 196.710938 84.007812 C 195.945312 84.417969 195.195312 84.863281 194.472656 85.347656 C 193.746094 85.832031 193.046875 86.351562 192.375 86.90625 C 191.703125 87.457031 191.054688 88.042969 190.441406 88.65625 C 189.824219 89.273438 189.238281 89.917969 188.6875 90.59375 C 188.132812 91.265625 187.617188 91.964844 187.132812 92.691406 C 186.648438 93.414062 186.199219 94.160156 185.789062 94.929688 C 185.378906 95.699219 185.007812 96.484375 184.671875 97.289062 C 184.339844 98.09375 184.046875 98.914062 183.792969 99.75 C 183.539062 100.582031 183.328125 101.425781 183.160156 102.28125 C 182.988281 103.136719 182.859375 103.996094 182.773438 104.863281 C 182.691406 105.730469 182.648438 106.601562 182.648438 107.472656 L 182.648438 119.566406 L 163.296875 119.566406 C 162.984375 119.566406 162.683594 119.625 162.394531 119.742188 C 162.105469 119.859375 161.847656 120.023438 161.621094 120.242188 C 161.394531 120.457031 161.21875 120.707031 161.089844 120.992188 C 160.964844 121.277344 160.894531 121.578125 160.878906 121.890625 L 160.09375 141.335938 L 114.917969 141.335938 C 114.597656 141.335938 114.289062 141.398438 113.992188 141.519531 C 113.695312 141.644531 113.433594 141.816406 113.207031 142.046875 C 112.980469 142.273438 112.808594 142.535156 112.683594 142.828125 C 112.5625 143.125 112.5 143.433594 112.5 143.753906 L 112.5 222.367188 C 112.5 222.925781 112.554688 223.476562 112.664062 224.019531 C 112.773438 224.566406 112.933594 225.09375 113.148438 225.605469 C 113.359375 226.121094 113.621094 226.609375 113.929688 227.070312 C 114.238281 227.53125 114.589844 227.960938 114.980469 228.351562 C 115.375 228.746094 115.804688 229.097656 116.265625 229.40625 C 116.726562 229.714844 117.214844 229.976562 117.726562 230.1875 C 118.242188 230.402344 118.769531 230.5625 119.316406 230.671875 C 119.859375 230.78125 120.410156 230.835938 120.964844 230.835938 L 260.050781 230.835938 C 260.382812 230.835938 260.699219 230.769531 261 230.640625 C 261.304688 230.511719 261.570312 230.324219 261.800781 230.085938 C 262.027344 229.847656 262.199219 229.574219 262.316406 229.265625 C 262.429688 228.957031 262.480469 228.636719 262.464844 228.308594 Z M 187.484375 107.472656 C 187.484375 106.757812 187.519531 106.046875 187.589844 105.339844 C 187.660156 104.628906 187.765625 103.925781 187.902344 103.226562 C 188.042969 102.527344 188.214844 101.835938 188.421875 101.152344 C 188.628906 100.472656 188.867188 99.800781 189.140625 99.140625 C 189.414062 98.484375 189.71875 97.839844 190.054688 97.210938 C 190.390625 96.582031 190.757812 95.96875 191.152344 95.378906 C 191.550781 94.785156 191.972656 94.214844 192.425781 93.660156 C 192.878906 93.109375 193.355469 92.582031 193.859375 92.078125 C 194.367188 91.574219 194.894531 91.097656 195.445312 90.644531 C 195.996094 90.191406 196.566406 89.769531 197.160156 89.371094 C 197.753906 88.976562 198.363281 88.609375 198.992188 88.273438 C 199.621094 87.9375 200.265625 87.632812 200.921875 87.359375 C 201.582031 87.085938 202.253906 86.847656 202.933594 86.640625 C 203.617188 86.433594 204.308594 86.261719 205.007812 86.121094 C 205.707031 85.980469 206.410156 85.878906 207.121094 85.808594 C 207.832031 85.738281 208.542969 85.703125 209.253906 85.703125 C 209.96875 85.703125 210.679688 85.738281 211.386719 85.808594 C 212.097656 85.878906 212.800781 85.980469 213.5 86.121094 C 214.199219 86.261719 214.890625 86.433594 215.574219 86.640625 C 216.257812 86.847656 216.925781 87.085938 217.585938 87.359375 C 218.246094 87.632812 218.886719 87.9375 219.515625 88.273438 C 220.144531 88.609375 220.757812 88.976562 221.347656 89.371094 C 221.941406 89.769531 222.515625 90.191406 223.066406 90.644531 C 223.617188 91.097656 224.144531 91.574219 224.648438 92.078125 C 225.152344 92.582031 225.628906 93.109375 226.082031 93.660156 C 226.535156 94.214844 226.960938 94.785156 227.355469 95.378906 C 227.75 95.96875 228.117188 96.582031 228.453125 97.210938 C 228.789062 97.839844 229.09375 98.484375 229.367188 99.140625 C 229.640625 99.800781 229.878906 100.472656 230.085938 101.152344 C 230.292969 101.835938 230.46875 102.527344 230.605469 103.226562 C 230.746094 103.925781 230.851562 104.628906 230.917969 105.339844 C 230.988281 106.046875 231.023438 106.757812 231.023438 107.472656 L 231.023438 119.566406 L 187.484375 119.566406 Z M 194.742188 222.367188 C 194.742188 222.851562 194.648438 223.3125 194.464844 223.757812 C 194.28125 224.199219 194.019531 224.59375 193.679688 224.933594 C 193.335938 225.273438 192.945312 225.535156 192.5 225.71875 C 192.058594 225.902344 191.59375 225.996094 191.113281 225.996094 L 120.964844 225.996094 C 120.484375 225.996094 120.023438 225.902344 119.578125 225.71875 C 119.132812 225.535156 118.742188 225.273438 118.402344 224.933594 C 118.0625 224.59375 117.800781 224.199219 117.613281 223.757812 C 117.429688 223.3125 117.339844 222.851562 117.335938 222.367188 L 117.335938 146.175781 L 194.742188 146.175781 Z M 198.761719 225.996094 C 199.308594 224.851562 199.582031 223.640625 199.578125 222.367188 L 199.578125 143.753906 C 199.578125 143.433594 199.519531 143.125 199.394531 142.828125 C 199.273438 142.535156 199.097656 142.273438 198.871094 142.046875 C 198.644531 141.816406 198.382812 141.644531 198.085938 141.519531 C 197.789062 141.398438 197.480469 141.335938 197.160156 141.335938 L 164.933594 141.335938 L 165.617188 124.40625 L 182.648438 124.40625 L 182.648438 129.242188 L 180.226562 129.242188 C 179.90625 129.242188 179.597656 129.304688 179.300781 129.425781 C 179.007812 129.550781 178.746094 129.722656 178.519531 129.949219 C 178.292969 130.175781 178.117188 130.4375 177.992188 130.734375 C 177.871094 131.03125 177.808594 131.339844 177.808594 131.660156 C 177.808594 131.980469 177.871094 132.289062 177.992188 132.585938 C 178.117188 132.882812 178.292969 133.144531 178.519531 133.371094 C 178.746094 133.597656 179.007812 133.773438 179.300781 133.894531 C 179.597656 134.019531 179.90625 134.078125 180.226562 134.078125 L 189.902344 134.078125 C 190.222656 134.078125 190.53125 134.019531 190.828125 133.894531 C 191.125 133.773438 191.386719 133.597656 191.613281 133.371094 C 191.839844 133.144531 192.015625 132.882812 192.136719 132.585938 C 192.261719 132.289062 192.324219 131.980469 192.324219 131.660156 C 192.324219 131.339844 192.261719 131.03125 192.136719 130.734375 C 192.015625 130.4375 191.839844 130.175781 191.613281 129.949219 C 191.386719 129.722656 191.125 129.550781 190.828125 129.425781 C 190.53125 129.304688 190.222656 129.242188 189.902344 129.242188 L 187.484375 129.242188 L 187.484375 124.40625 L 231.023438 124.40625 L 231.023438 129.242188 L 228.605469 129.242188 C 228.285156 129.242188 227.976562 129.304688 227.679688 129.425781 C 227.382812 129.550781 227.121094 129.722656 226.894531 129.949219 C 226.667969 130.175781 226.492188 130.4375 226.371094 130.734375 C 226.25 131.03125 226.1875 131.339844 226.1875 131.660156 C 226.1875 131.980469 226.25 132.289062 226.371094 132.585938 C 226.492188 132.882812 226.667969 133.144531 226.894531 133.371094 C 227.121094 133.597656 227.382812 133.773438 227.679688 133.894531 C 227.976562 134.019531 228.285156 134.078125 228.605469 134.078125 L 238.28125 134.078125 C 238.601562 134.078125 238.910156 134.019531 239.207031 133.894531 C 239.503906 133.773438 239.765625 133.597656 239.992188 133.371094 C 240.21875 133.144531 240.394531 132.882812 240.515625 132.585938 C 240.636719 132.289062 240.699219 131.980469 240.699219 131.660156 C 240.699219 131.339844 240.636719 131.03125 240.515625 130.734375 C 240.394531 130.4375 240.21875 130.175781 239.992188 129.949219 C 239.765625 129.722656 239.503906 129.550781 239.207031 129.425781 C 238.910156 129.304688 238.601562 129.242188 238.28125 129.242188 L 235.863281 129.242188 L 235.863281 124.40625 L 252.902344 124.40625 L 257.519531 225.996094 Z M 198.761719 225.996094 " clip-rule="nonzero"/></clipPath><linearGradient x1="57.999524" gradientTransform="matrix(0.302358, 0, 0, 0.302358, 110.081133, 78.446108)" y1="553.999488" x2="553.944077" gradientUnits="userSpaceOnUse" y2="58.054926" id="6128070417"><stop stop-opacity="1" stop-color="rgb(54.89502%, 32.194519%, 99.987793%)" offset="0"/><stop stop-opacity="1" stop-color="rgb(54.727173%, 31.999207%, 99.508667%)" offset="0.00390625"/><stop stop-opacity="1" stop-color="rgb(54.560852%, 31.80542%, 99.031067%)" offset="0.0078125"/><stop stop-opacity="1" stop-color="rgb(54.394531%, 31.610107%, 98.551941%)" offset="0.0117188"/><stop stop-opacity="1" stop-color="rgb(54.22821%, 31.416321%, 98.072815%)" offset="0.015625"/><stop stop-opacity="1" stop-color="rgb(54.060364%, 31.221008%, 97.593689%)" offset="0.0195313"/><stop stop-opacity="1" stop-color="rgb(53.894043%, 31.027222%, 97.116089%)" offset="0.0234375"/><stop stop-opacity="1" stop-color="rgb(53.726196%, 30.833435%, 96.636963%)" offset="0.0273438"/><stop stop-opacity="1" stop-color="rgb(53.559875%, 30.639648%, 96.157837%)" offset="0.03125"/><stop stop-opacity="1" stop-color="rgb(53.392029%, 30.444336%, 95.678711%)" offset="0.0351563"/><stop stop-opacity="1" stop-color="rgb(53.225708%, 30.250549%, 95.201111%)" offset="0.0390625"/><stop stop-opacity="1" stop-color="rgb(53.057861%, 30.055237%, 94.721985%)" offset="0.0429688"/><stop stop-opacity="1" stop-color="rgb(52.891541%, 29.86145%, 94.242859%)" offset="0.046875"/><stop stop-opacity="1" stop-color="rgb(52.72522%, 29.666138%, 93.763733%)" offset="0.0507813"/><stop stop-opacity="1" stop-color="rgb(52.558899%, 29.472351%, 93.286133%)" offset="0.0546875"/><stop stop-opacity="1" stop-color="rgb(52.391052%, 29.277039%, 92.807007%)" offset="0.0585938"/><stop stop-opacity="1" stop-color="rgb(52.224731%, 29.083252%, 92.327881%)" offset="0.0625"/><stop stop-opacity="1" stop-color="rgb(52.056885%, 28.887939%, 91.848755%)" offset="0.0664063"/><stop stop-opacity="1" stop-color="rgb(51.890564%, 28.694153%, 91.371155%)" offset="0.0703125"/><stop stop-opacity="1" stop-color="rgb(51.722717%, 28.49884%, 90.892029%)" offset="0.0742188"/><stop stop-opacity="1" stop-color="rgb(51.556396%, 28.305054%, 90.412903%)" offset="0.078125"/><stop stop-opacity="1" stop-color="rgb(51.390076%, 28.109741%, 89.933777%)" offset="0.0820313"/><stop stop-opacity="1" stop-color="rgb(51.223755%, 27.915955%, 89.456177%)" offset="0.0859375"/><stop stop-opacity="1" stop-color="rgb(51.055908%, 27.720642%, 88.977051%)" offset="0.0898438"/><stop stop-opacity="1" stop-color="rgb(50.889587%, 27.526855%, 88.499451%)" offset="0.09375"/><stop stop-opacity="1" stop-color="rgb(50.721741%, 27.331543%, 88.020325%)" offset="0.0976563"/><stop stop-opacity="1" stop-color="rgb(50.55542%, 27.137756%, 87.541199%)" offset="0.101563"/><stop stop-opacity="1" stop-color="rgb(50.387573%, 26.942444%, 87.062073%)" offset="0.105469"/><stop stop-opacity="1" stop-color="rgb(50.221252%, 26.748657%, 86.584473%)" offset="0.109375"/><stop stop-opacity="1" stop-color="rgb(50.053406%, 26.553345%, 86.105347%)" offset="0.113281"/><stop stop-opacity="1" stop-color="rgb(49.887085%, 26.359558%, 85.626221%)" offset="0.117188"/><stop stop-opacity="1" stop-color="rgb(49.720764%, 26.165771%, 85.147095%)" offset="0.121094"/><stop stop-opacity="1" stop-color="rgb(49.554443%, 25.971985%, 84.669495%)" offset="0.125"/><stop stop-opacity="1" stop-color="rgb(49.386597%, 25.776672%, 84.190369%)" offset="0.128906"/><stop stop-opacity="1" stop-color="rgb(49.220276%, 25.582886%, 83.711243%)" offset="0.132813"/><stop stop-opacity="1" stop-color="rgb(49.052429%, 25.387573%, 83.232117%)" offset="0.136719"/><stop stop-opacity="1" stop-color="rgb(48.886108%, 25.193787%, 82.754517%)" offset="0.140625"/><stop stop-opacity="1" stop-color="rgb(48.718262%, 24.998474%, 82.275391%)" offset="0.144531"/><stop stop-opacity="1" stop-color="rgb(48.551941%, 24.804688%, 81.796265%)" offset="0.148438"/><stop stop-opacity="1" stop-color="rgb(48.384094%, 24.609375%, 81.317139%)" offset="0.152344"/><stop stop-opacity="1" stop-color="rgb(48.217773%, 24.415588%, 80.839539%)" offset="0.15625"/><stop stop-opacity="1" stop-color="rgb(48.051453%, 24.220276%, 80.360413%)" offset="0.160156"/><stop stop-opacity="1" stop-color="rgb(47.885132%, 24.026489%, 79.881287%)" offset="0.164063"/><stop stop-opacity="1" stop-color="rgb(47.717285%, 23.831177%, 79.402161%)" offset="0.167969"/><stop stop-opacity="1" stop-color="rgb(47.550964%, 23.63739%, 78.924561%)" offset="0.171875"/><stop stop-opacity="1" stop-color="rgb(47.383118%, 23.442078%, 78.445435%)" offset="0.175781"/><stop stop-opacity="1" stop-color="rgb(47.216797%, 23.248291%, 77.966309%)" offset="0.179688"/><stop stop-opacity="1" stop-color="rgb(47.04895%, 23.052979%, 77.487183%)" offset="0.183594"/><stop stop-opacity="1" stop-color="rgb(46.882629%, 22.859192%, 77.009583%)" offset="0.1875"/><stop stop-opacity="1" stop-color="rgb(46.714783%, 22.663879%, 76.530457%)" offset="0.191406"/><stop stop-opacity="1" stop-color="rgb(46.548462%, 22.470093%, 76.051331%)" offset="0.195313"/><stop stop-opacity="1" stop-color="rgb(46.382141%, 22.27478%, 75.572205%)" offset="0.199219"/><stop stop-opacity="1" stop-color="rgb(46.21582%, 22.080994%, 75.094604%)" offset="0.203125"/><stop stop-opacity="1" stop-color="rgb(46.047974%, 21.885681%, 74.615479%)" offset="0.207031"/><stop stop-opacity="1" stop-color="rgb(45.881653%, 21.691895%, 74.136353%)" offset="0.210938"/><stop stop-opacity="1" stop-color="rgb(45.713806%, 21.498108%, 73.657227%)" offset="0.214844"/><stop stop-opacity="1" stop-color="rgb(45.547485%, 21.304321%, 73.179626%)" offset="0.21875"/><stop stop-opacity="1" stop-color="rgb(45.379639%, 21.109009%, 72.7005%)" offset="0.222656"/><stop stop-opacity="1" stop-color="rgb(45.213318%, 20.915222%, 72.221375%)" offset="0.226563"/><stop stop-opacity="1" stop-color="rgb(45.045471%, 20.71991%, 71.742249%)" offset="0.230469"/><stop stop-opacity="1" stop-color="rgb(44.87915%, 20.526123%, 71.264648%)" offset="0.234375"/><stop stop-opacity="1" stop-color="rgb(44.71283%, 20.330811%, 70.785522%)" offset="0.238281"/><stop stop-opacity="1" stop-color="rgb(44.546509%, 20.137024%, 70.306396%)" offset="0.242187"/><stop stop-opacity="1" stop-color="rgb(44.378662%, 19.941711%, 69.827271%)" offset="0.246094"/><stop stop-opacity="1" stop-color="rgb(44.212341%, 19.747925%, 69.34967%)" offset="0.25"/><stop stop-opacity="1" stop-color="rgb(44.044495%, 19.552612%, 68.870544%)" offset="0.253906"/><stop stop-opacity="1" stop-color="rgb(43.878174%, 19.358826%, 68.391418%)" offset="0.257812"/><stop stop-opacity="1" stop-color="rgb(43.710327%, 19.163513%, 67.912292%)" offset="0.261719"/><stop stop-opacity="1" stop-color="rgb(43.544006%, 18.969727%, 67.434692%)" offset="0.265625"/><stop stop-opacity="1" stop-color="rgb(43.37616%, 18.774414%, 66.955566%)" offset="0.269531"/><stop stop-opacity="1" stop-color="rgb(43.209839%, 18.580627%, 66.47644%)" offset="0.273438"/><stop stop-opacity="1" stop-color="rgb(43.043518%, 18.385315%, 65.997314%)" offset="0.277344"/><stop stop-opacity="1" stop-color="rgb(42.877197%, 18.191528%, 65.519714%)" offset="0.28125"/><stop stop-opacity="1" stop-color="rgb(42.709351%, 17.996216%, 65.040588%)" offset="0.285156"/><stop stop-opacity="1" stop-color="rgb(42.54303%, 17.802429%, 64.561462%)" offset="0.289062"/><stop stop-opacity="1" stop-color="rgb(42.375183%, 17.607117%, 64.082336%)" offset="0.292969"/><stop stop-opacity="1" stop-color="rgb(42.208862%, 17.41333%, 63.604736%)" offset="0.296875"/><stop stop-opacity="1" stop-color="rgb(42.041016%, 17.218018%, 63.12561%)" offset="0.300781"/><stop stop-opacity="1" stop-color="rgb(41.874695%, 17.024231%, 62.646484%)" offset="0.304688"/><stop stop-opacity="1" stop-color="rgb(41.708374%, 16.830444%, 62.167358%)" offset="0.308594"/><stop stop-opacity="1" stop-color="rgb(41.542053%, 16.636658%, 61.689758%)" offset="0.3125"/><stop stop-opacity="1" stop-color="rgb(41.374207%, 16.441345%, 61.210632%)" offset="0.316406"/><stop stop-opacity="1" stop-color="rgb(41.207886%, 16.247559%, 60.733032%)" offset="0.320312"/><stop stop-opacity="1" stop-color="rgb(41.040039%, 16.052246%, 60.253906%)" offset="0.324219"/><stop stop-opacity="1" stop-color="rgb(40.873718%, 15.858459%, 59.77478%)" offset="0.328125"/><stop stop-opacity="1" stop-color="rgb(40.705872%, 15.663147%, 59.295654%)" offset="0.332031"/><stop stop-opacity="1" stop-color="rgb(40.539551%, 15.46936%, 58.818054%)" offset="0.335938"/><stop stop-opacity="1" stop-color="rgb(40.371704%, 15.274048%, 58.338928%)" offset="0.339844"/><stop stop-opacity="1" stop-color="rgb(40.205383%, 15.080261%, 57.859802%)" offset="0.34375"/><stop stop-opacity="1" stop-color="rgb(40.039062%, 14.884949%, 57.380676%)" offset="0.347656"/><stop stop-opacity="1" stop-color="rgb(39.872742%, 14.691162%, 56.903076%)" offset="0.351562"/><stop stop-opacity="1" stop-color="rgb(39.704895%, 14.49585%, 56.42395%)" offset="0.355469"/><stop stop-opacity="1" stop-color="rgb(39.538574%, 14.302063%, 55.944824%)" offset="0.359375"/><stop stop-opacity="1" stop-color="rgb(39.370728%, 14.10675%, 55.465698%)" offset="0.363281"/><stop stop-opacity="1" stop-color="rgb(39.204407%, 13.912964%, 54.988098%)" offset="0.367188"/><stop stop-opacity="1" stop-color="rgb(39.03656%, 13.717651%, 54.508972%)" offset="0.371094"/><stop stop-opacity="1" stop-color="rgb(38.870239%, 13.523865%, 54.029846%)" offset="0.375"/><stop stop-opacity="1" stop-color="rgb(38.702393%, 13.328552%, 53.55072%)" offset="0.378906"/><stop stop-opacity="1" stop-color="rgb(38.536072%, 13.134766%, 53.07312%)" offset="0.382812"/><stop stop-opacity="1" stop-color="rgb(38.369751%, 12.939453%, 52.593994%)" offset="0.386719"/><stop stop-opacity="1" stop-color="rgb(38.20343%, 12.745667%, 52.114868%)" offset="0.390625"/><stop stop-opacity="1" stop-color="rgb(38.035583%, 12.55188%, 51.635742%)" offset="0.394531"/><stop stop-opacity="1" stop-color="rgb(37.869263%, 12.358093%, 51.158142%)" offset="0.398438"/><stop stop-opacity="1" stop-color="rgb(37.701416%, 12.162781%, 50.679016%)" offset="0.402344"/><stop stop-opacity="1" stop-color="rgb(37.535095%, 11.968994%, 50.19989%)" offset="0.40625"/><stop stop-opacity="1" stop-color="rgb(37.367249%, 11.773682%, 49.720764%)" offset="0.410156"/><stop stop-opacity="1" stop-color="rgb(37.200928%, 11.579895%, 49.243164%)" offset="0.414062"/><stop stop-opacity="1" stop-color="rgb(37.033081%, 11.384583%, 48.764038%)" offset="0.417969"/><stop stop-opacity="1" stop-color="rgb(36.86676%, 11.190796%, 48.284912%)" offset="0.421875"/><stop stop-opacity="1" stop-color="rgb(36.700439%, 10.995483%, 47.805786%)" offset="0.425781"/><stop stop-opacity="1" stop-color="rgb(36.534119%, 10.801697%, 47.328186%)" offset="0.429688"/><stop stop-opacity="1" stop-color="rgb(36.366272%, 10.606384%, 46.84906%)" offset="0.433594"/><stop stop-opacity="1" stop-color="rgb(36.199951%, 10.412598%, 46.369934%)" offset="0.4375"/><stop stop-opacity="1" stop-color="rgb(36.032104%, 10.217285%, 45.890808%)" offset="0.441406"/><stop stop-opacity="1" stop-color="rgb(35.865784%, 10.023499%, 45.413208%)" offset="0.445312"/><stop stop-opacity="1" stop-color="rgb(35.697937%, 9.828186%, 44.934082%)" offset="0.449219"/><stop stop-opacity="1" stop-color="rgb(35.531616%, 9.634399%, 44.454956%)" offset="0.453125"/><stop stop-opacity="1" stop-color="rgb(35.36377%, 9.439087%, 43.97583%)" offset="0.457031"/><stop stop-opacity="1" stop-color="rgb(35.197449%, 9.2453%, 43.49823%)" offset="0.460938"/><stop stop-opacity="1" stop-color="rgb(35.031128%, 9.049988%, 43.019104%)" offset="0.464844"/><stop stop-opacity="1" stop-color="rgb(34.864807%, 8.856201%, 42.539978%)" offset="0.46875"/><stop stop-opacity="1" stop-color="rgb(34.69696%, 8.660889%, 42.060852%)" offset="0.472656"/><stop stop-opacity="1" stop-color="rgb(34.53064%, 8.467102%, 41.583252%)" offset="0.476562"/><stop stop-opacity="1" stop-color="rgb(34.362793%, 8.27179%, 41.104126%)" offset="0.480469"/><stop stop-opacity="1" stop-color="rgb(34.196472%, 8.078003%, 40.625%)" offset="0.484375"/><stop stop-opacity="1" stop-color="rgb(34.028625%, 7.884216%, 40.145874%)" offset="0.488281"/><stop stop-opacity="1" stop-color="rgb(33.862305%, 7.69043%, 39.668274%)" offset="0.492188"/><stop stop-opacity="1" stop-color="rgb(33.866882%, 7.595825%, 39.538574%)" offset="0.496094"/><stop stop-opacity="1" stop-color="rgb(33.87146%, 7.501221%, 39.408875%)" offset="0.5"/><stop stop-opacity="1" stop-color="rgb(34.040833%, 7.504272%, 39.614868%)" offset="0.503906"/><stop stop-opacity="1" stop-color="rgb(34.210205%, 7.507324%, 39.820862%)" offset="0.507812"/><stop stop-opacity="1" stop-color="rgb(34.379578%, 7.50885%, 40.02533%)" offset="0.511719"/><stop stop-opacity="1" stop-color="rgb(34.54895%, 7.511902%, 40.231323%)" offset="0.515625"/><stop stop-opacity="1" stop-color="rgb(34.718323%, 7.513428%, 40.437317%)" offset="0.519531"/><stop stop-opacity="1" stop-color="rgb(34.887695%, 7.516479%, 40.643311%)" offset="0.523438"/><stop stop-opacity="1" stop-color="rgb(35.057068%, 7.519531%, 40.847778%)" offset="0.527344"/><stop stop-opacity="1" stop-color="rgb(35.22644%, 7.522583%, 41.053772%)" offset="0.53125"/><stop stop-opacity="1" stop-color="rgb(35.394287%, 7.524109%, 41.259766%)" offset="0.535156"/><stop stop-opacity="1" stop-color="rgb(35.56366%, 7.527161%, 41.465759%)" offset="0.539062"/><stop stop-opacity="1" stop-color="rgb(35.733032%, 7.528687%, 41.670227%)" offset="0.542969"/><stop stop-opacity="1" stop-color="rgb(35.902405%, 7.531738%, 41.876221%)" offset="0.546875"/><stop stop-opacity="1" stop-color="rgb(36.071777%, 7.53479%, 42.082214%)" offset="0.550781"/><stop stop-opacity="1" stop-color="rgb(36.24115%, 7.537842%, 42.288208%)" offset="0.554688"/><stop stop-opacity="1" stop-color="rgb(36.410522%, 7.539368%, 42.492676%)" offset="0.558594"/><stop stop-opacity="1" stop-color="rgb(36.579895%, 7.542419%, 42.698669%)" offset="0.5625"/><stop stop-opacity="1" stop-color="rgb(36.749268%, 7.543945%, 42.904663%)" offset="0.566406"/><stop stop-opacity="1" stop-color="rgb(36.91864%, 7.546997%, 43.110657%)" offset="0.570312"/><stop stop-opacity="1" stop-color="rgb(37.088013%, 7.550049%, 43.315125%)" offset="0.574219"/><stop stop-opacity="1" stop-color="rgb(37.257385%, 7.553101%, 43.521118%)" offset="0.578125"/><stop stop-opacity="1" stop-color="rgb(37.425232%, 7.554626%, 43.727112%)" offset="0.582031"/><stop stop-opacity="1" stop-color="rgb(37.594604%, 7.557678%, 43.933105%)" offset="0.585938"/><stop stop-opacity="1" stop-color="rgb(37.763977%, 7.559204%, 44.137573%)" offset="0.589844"/><stop stop-opacity="1" stop-color="rgb(37.93335%, 7.562256%, 44.343567%)" offset="0.59375"/><stop stop-opacity="1" stop-color="rgb(38.102722%, 7.565308%, 44.549561%)" offset="0.597656"/><stop stop-opacity="1" stop-color="rgb(38.272095%, 7.568359%, 44.755554%)" offset="0.601562"/><stop stop-opacity="1" stop-color="rgb(38.441467%, 7.569885%, 44.960022%)" offset="0.605469"/><stop stop-opacity="1" stop-color="rgb(38.61084%, 7.572937%, 45.166016%)" offset="0.609375"/><stop stop-opacity="1" stop-color="rgb(38.780212%, 7.574463%, 45.372009%)" offset="0.613281"/><stop stop-opacity="1" stop-color="rgb(38.949585%, 7.577515%, 45.578003%)" offset="0.617188"/><stop stop-opacity="1" stop-color="rgb(39.118958%, 7.580566%, 45.782471%)" offset="0.621094"/><stop stop-opacity="1" stop-color="rgb(39.28833%, 7.583618%, 45.988464%)" offset="0.625"/><stop stop-opacity="1" stop-color="rgb(39.456177%, 7.585144%, 46.194458%)" offset="0.628906"/><stop stop-opacity="1" stop-color="rgb(39.625549%, 7.588196%, 46.400452%)" offset="0.632812"/><stop stop-opacity="1" stop-color="rgb(39.794922%, 7.589722%, 46.604919%)" offset="0.636719"/><stop stop-opacity="1" stop-color="rgb(39.964294%, 7.592773%, 46.810913%)" offset="0.640625"/><stop stop-opacity="1" stop-color="rgb(40.133667%, 7.595825%, 47.016907%)" offset="0.644531"/><stop stop-opacity="1" stop-color="rgb(40.30304%, 7.598877%, 47.2229%)" offset="0.648438"/><stop stop-opacity="1" stop-color="rgb(40.472412%, 7.600403%, 47.427368%)" offset="0.652344"/><stop stop-opacity="1" stop-color="rgb(40.641785%, 7.603455%, 47.633362%)" offset="0.65625"/><stop stop-opacity="1" stop-color="rgb(40.811157%, 7.60498%, 47.839355%)" offset="0.660156"/><stop stop-opacity="1" stop-color="rgb(40.98053%, 7.608032%, 48.045349%)" offset="0.664062"/><stop stop-opacity="1" stop-color="rgb(41.148376%, 7.611084%, 48.251343%)" offset="0.667969"/><stop stop-opacity="1" stop-color="rgb(41.317749%, 7.614136%, 48.457336%)" offset="0.671875"/><stop stop-opacity="1" stop-color="rgb(41.487122%, 7.615662%, 48.661804%)" offset="0.675781"/><stop stop-opacity="1" stop-color="rgb(41.656494%, 7.618713%, 48.867798%)" offset="0.679688"/><stop stop-opacity="1" stop-color="rgb(41.825867%, 7.620239%, 49.073792%)" offset="0.683594"/><stop stop-opacity="1" stop-color="rgb(41.995239%, 7.623291%, 49.279785%)" offset="0.6875"/><stop stop-opacity="1" stop-color="rgb(42.164612%, 7.626343%, 49.484253%)" offset="0.691406"/><stop stop-opacity="1" stop-color="rgb(42.333984%, 7.629395%, 49.690247%)" offset="0.695312"/><stop stop-opacity="1" stop-color="rgb(42.503357%, 7.63092%, 49.89624%)" offset="0.699219"/><stop stop-opacity="1" stop-color="rgb(42.672729%, 7.633972%, 50.102234%)" offset="0.703125"/><stop stop-opacity="1" stop-color="rgb(42.842102%, 7.635498%, 50.306702%)" offset="0.707031"/><stop stop-opacity="1" stop-color="rgb(43.011475%, 7.63855%, 50.512695%)" offset="0.710938"/><stop stop-opacity="1" stop-color="rgb(43.179321%, 7.641602%, 50.718689%)" offset="0.714844"/><stop stop-opacity="1" stop-color="rgb(43.348694%, 7.644653%, 50.924683%)" offset="0.71875"/><stop stop-opacity="1" stop-color="rgb(43.518066%, 7.646179%, 51.12915%)" offset="0.722656"/><stop stop-opacity="1" stop-color="rgb(43.687439%, 7.649231%, 51.335144%)" offset="0.726562"/><stop stop-opacity="1" stop-color="rgb(43.856812%, 7.650757%, 51.541138%)" offset="0.730469"/><stop stop-opacity="1" stop-color="rgb(44.026184%, 7.653809%, 51.747131%)" offset="0.734375"/><stop stop-opacity="1" stop-color="rgb(44.195557%, 7.65686%, 51.951599%)" offset="0.738281"/><stop stop-opacity="1" stop-color="rgb(44.364929%, 7.659912%, 52.157593%)" offset="0.742188"/><stop stop-opacity="1" stop-color="rgb(44.534302%, 7.661438%, 52.363586%)" offset="0.746094"/><stop stop-opacity="1" stop-color="rgb(44.703674%, 7.66449%, 52.56958%)" offset="0.75"/><stop stop-opacity="1" stop-color="rgb(44.873047%, 7.666016%, 52.774048%)" offset="0.753906"/><stop stop-opacity="1" stop-color="rgb(45.042419%, 7.669067%, 52.980042%)" offset="0.757812"/><stop stop-opacity="1" stop-color="rgb(45.210266%, 7.672119%, 53.186035%)" offset="0.761719"/><stop stop-opacity="1" stop-color="rgb(45.379639%, 7.675171%, 53.392029%)" offset="0.765625"/><stop stop-opacity="1" stop-color="rgb(45.549011%, 7.676697%, 53.596497%)" offset="0.769531"/><stop stop-opacity="1" stop-color="rgb(45.718384%, 7.679749%, 53.80249%)" offset="0.773438"/><stop stop-opacity="1" stop-color="rgb(45.887756%, 7.681274%, 54.008484%)" offset="0.777344"/><stop stop-opacity="1" stop-color="rgb(46.057129%, 7.684326%, 54.214478%)" offset="0.78125"/><stop stop-opacity="1" stop-color="rgb(46.226501%, 7.687378%, 54.418945%)" offset="0.785156"/><stop stop-opacity="1" stop-color="rgb(46.395874%, 7.69043%, 54.624939%)" offset="0.789062"/><stop stop-opacity="1" stop-color="rgb(46.565247%, 7.691956%, 54.830933%)" offset="0.792969"/><stop stop-opacity="1" stop-color="rgb(46.734619%, 7.695007%, 55.036926%)" offset="0.796875"/><stop stop-opacity="1" stop-color="rgb(46.903992%, 7.696533%, 55.241394%)" offset="0.800781"/><stop stop-opacity="1" stop-color="rgb(47.073364%, 7.699585%, 55.447388%)" offset="0.804688"/><stop stop-opacity="1" stop-color="rgb(47.241211%, 7.701111%, 55.653381%)" offset="0.808594"/><stop stop-opacity="1" stop-color="rgb(47.410583%, 7.704163%, 55.859375%)" offset="0.8125"/><stop stop-opacity="1" stop-color="rgb(47.579956%, 7.707214%, 56.063843%)" offset="0.816406"/><stop stop-opacity="1" stop-color="rgb(47.749329%, 7.710266%, 56.269836%)" offset="0.820312"/><stop stop-opacity="1" stop-color="rgb(47.918701%, 7.711792%, 56.47583%)" offset="0.824219"/><stop stop-opacity="1" stop-color="rgb(48.088074%, 7.714844%, 56.681824%)" offset="0.828125"/><stop stop-opacity="1" stop-color="rgb(48.257446%, 7.71637%, 56.886292%)" offset="0.832031"/><stop stop-opacity="1" stop-color="rgb(48.426819%, 7.719421%, 57.092285%)" offset="0.835938"/><stop stop-opacity="1" stop-color="rgb(48.596191%, 7.722473%, 57.298279%)" offset="0.839844"/><stop stop-opacity="1" stop-color="rgb(48.765564%, 7.725525%, 57.504272%)" offset="0.84375"/><stop stop-opacity="1" stop-color="rgb(48.933411%, 7.727051%, 57.70874%)" offset="0.847656"/><stop stop-opacity="1" stop-color="rgb(49.102783%, 7.730103%, 57.914734%)" offset="0.851562"/><stop stop-opacity="1" stop-color="rgb(49.272156%, 7.731628%, 58.120728%)" offset="0.855469"/><stop stop-opacity="1" stop-color="rgb(49.441528%, 7.73468%, 58.326721%)" offset="0.859375"/><stop stop-opacity="1" stop-color="rgb(49.610901%, 7.737732%, 58.531189%)" offset="0.863281"/><stop stop-opacity="1" stop-color="rgb(49.780273%, 7.740784%, 58.737183%)" offset="0.867188"/><stop stop-opacity="1" stop-color="rgb(49.949646%, 7.74231%, 58.943176%)" offset="0.871094"/><stop stop-opacity="1" stop-color="rgb(50.119019%, 7.745361%, 59.14917%)" offset="0.875"/><stop stop-opacity="1" stop-color="rgb(50.288391%, 7.746887%, 59.355164%)" offset="0.878906"/><stop stop-opacity="1" stop-color="rgb(50.457764%, 7.749939%, 59.561157%)" offset="0.882812"/><stop stop-opacity="1" stop-color="rgb(50.627136%, 7.752991%, 59.765625%)" offset="0.886719"/><stop stop-opacity="1" stop-color="rgb(50.796509%, 7.756042%, 59.971619%)" offset="0.890625"/><stop stop-opacity="1" stop-color="rgb(50.964355%, 7.757568%, 60.177612%)" offset="0.894531"/><stop stop-opacity="1" stop-color="rgb(51.133728%, 7.76062%, 60.383606%)" offset="0.898438"/><stop stop-opacity="1" stop-color="rgb(51.303101%, 7.762146%, 60.588074%)" offset="0.902344"/><stop stop-opacity="1" stop-color="rgb(51.472473%, 7.765198%, 60.794067%)" offset="0.90625"/><stop stop-opacity="1" stop-color="rgb(51.641846%, 7.76825%, 61.000061%)" offset="0.910156"/><stop stop-opacity="1" stop-color="rgb(51.811218%, 7.771301%, 61.206055%)" offset="0.914062"/><stop stop-opacity="1" stop-color="rgb(51.980591%, 7.772827%, 61.410522%)" offset="0.917969"/><stop stop-opacity="1" stop-color="rgb(52.149963%, 7.775879%, 61.616516%)" offset="0.921875"/><stop stop-opacity="1" stop-color="rgb(52.319336%, 7.777405%, 61.82251%)" offset="0.925781"/><stop stop-opacity="1" stop-color="rgb(52.488708%, 7.780457%, 62.028503%)" offset="0.929688"/><stop stop-opacity="1" stop-color="rgb(52.658081%, 7.783508%, 62.232971%)" offset="0.933594"/><stop stop-opacity="1" stop-color="rgb(52.827454%, 7.78656%, 62.438965%)" offset="0.9375"/><stop stop-opacity="1" stop-color="rgb(52.9953%, 7.788086%, 62.644958%)" offset="0.941406"/><stop stop-opacity="1" stop-color="rgb(53.164673%, 7.791138%, 62.850952%)" offset="0.945312"/><stop stop-opacity="1" stop-color="rgb(53.334045%, 7.792664%, 63.05542%)" offset="0.949219"/><stop stop-opacity="1" stop-color="rgb(53.503418%, 7.795715%, 63.261414%)" offset="0.953125"/><stop stop-opacity="1" stop-color="rgb(53.601074%, 7.797241%, 63.380432%)" offset="0.96875"/><stop stop-opacity="1" stop-color="rgb(53.69873%, 7.798767%, 63.499451%)" offset="1"/></linearGradient></defs><g clip-path="url(#ccf56f9f70)"><g clip-path="url(#8f4e4c93de)"><path fill="url(#348bb34a26)" d="M 127.011719 153.429688 L 127.011719 199.390625 L 185.066406 199.390625 L 185.066406 153.429688 Z M 127.011719 153.429688 " fill-rule="nonzero"/></g></g><g clip-path="url(#922e21153f)"><g clip-path="url(#195c3936c4)"><path fill="url(#6128070417)" d="M 112.5 80.910156 L 112.5 230.835938 L 262.480469 230.835938 L 262.480469 80.910156 Z M 112.5 80.910156 " fill-rule="nonzero"/></g></g><g fill="#000000" fill-opacity="1"><g transform="translate(120.968968, 266.696834)"><g><path d="M 7.421875 -12.15625 L 7.515625 0 L 2.59375 0 L 2.703125 -10.09375 L 2.59375 -21.90625 L 7.515625 -21.90625 Z M 7.421875 -12.15625 "/></g></g></g><g fill="#000000" fill-opacity="1"><g transform="translate(131.061077, 266.696834)"><g><path d="M 2.59375 -21.90625 L 8.6875 -21.90625 L 15.453125 -6.359375 L 15.640625 -6.359375 L 15.265625 -21.90625 L 19.78125 -21.90625 L 19.78125 0 L 13.671875 0 L 6.921875 -15.546875 L 6.734375 -15.546875 L 7.109375 0 L 2.59375 0 Z M 2.59375 -21.90625 "/></g></g></g><g fill="#000000" fill-opacity="1"><g transform="translate(153.363402, 266.696834)"><g><path d="M 14.734375 -13.046875 L 14.734375 -8.9375 L 7.328125 -8.9375 L 7.484375 0 L 2.59375 0 L 2.59375 -21.90625 L 15.734375 -21.90625 L 15.734375 -17.671875 L 7.421875 -17.765625 L 7.328125 -13.046875 Z M 14.734375 -13.046875 "/></g></g></g><g fill="#000000" fill-opacity="1"><g transform="translate(170.090143, 266.696834)"><g><path d="M 7.421875 -12.15625 L 7.515625 0 L 2.59375 0 L 2.703125 -10.09375 L 2.59375 -21.90625 L 7.515625 -21.90625 Z M 7.421875 -12.15625 "/></g></g></g><g fill="#000000" fill-opacity="1"><g transform="translate(180.182252, 266.696834)"><g><path d="M 2.59375 -21.90625 L 8.6875 -21.90625 L 15.453125 -6.359375 L 15.640625 -6.359375 L 15.265625 -21.90625 L 19.78125 -21.90625 L 19.78125 0 L 13.671875 0 L 6.921875 -15.546875 L 6.734375 -15.546875 L 7.109375 0 L 2.59375 0 Z M 2.59375 -21.90625 "/></g></g></g><g fill="#000000" fill-opacity="1"><g transform="translate(202.484576, 266.696834)"><g><path d="M 7.421875 -12.15625 L 7.515625 0 L 2.59375 0 L 2.703125 -10.09375 L 2.59375 -21.90625 L 7.515625 -21.90625 Z M 7.421875 -12.15625 "/></g></g></g><g fill="#000000" fill-opacity="1"><g transform="translate(212.576685, 266.696834)"><g><path d="M -0.5 -21.90625 L 16.546875 -21.90625 L 16.546875 -17.671875 L 10.3125 -17.765625 L 10.40625 0 L 5.515625 0 L 5.609375 -17.765625 L -0.5 -17.671875 Z M -0.5 -21.90625 "/></g></g></g><g fill="#000000" fill-opacity="1"><g transform="translate(228.649305, 266.696834)"><g><path d="M 6.515625 0 L 6.609375 -7.875 L -0.125 -21.90625 L 5.078125 -21.90625 L 8.90625 -11.875 L 9.09375 -11.875 L 12.9375 -21.90625 L 18.140625 -21.90625 L 11.40625 -7.875 L 11.46875 0 Z M 6.515625 0 "/></g></g></g><g fill="#ff00ff" fill-opacity="1"><g transform="translate(134.515822, 292.150586)"><g><path d="M 6.296875 -2.046875 C 7.597656 -2.046875 8.25 -2.757812 8.25 -4.1875 C 8.25 -4.789062 8.003906 -5.300781 7.515625 -5.71875 C 7.023438 -6.132812 6.347656 -6.535156 5.484375 -6.921875 C 4.617188 -7.316406 4.125 -7.546875 4 -7.609375 C 3.875 -7.679688 3.644531 -7.804688 3.3125 -7.984375 C 2.988281 -8.160156 2.765625 -8.304688 2.640625 -8.421875 C 2.515625 -8.546875 2.332031 -8.722656 2.09375 -8.953125 C 1.863281 -9.179688 1.707031 -9.414062 1.625 -9.65625 C 1.375 -10.289062 1.25 -10.914062 1.25 -11.53125 C 1.25 -12.789062 1.679688 -13.820312 2.546875 -14.625 C 3.410156 -15.4375 4.644531 -15.84375 6.25 -15.84375 C 7.425781 -15.84375 8.582031 -15.679688 9.71875 -15.359375 L 10.328125 -15.203125 L 9.90625 -13.015625 C 8.28125 -13.328125 7.039062 -13.484375 6.1875 -13.484375 C 5.34375 -13.484375 4.753906 -13.34375 4.421875 -13.0625 C 4.097656 -12.789062 3.9375 -12.351562 3.9375 -11.75 C 3.9375 -11.15625 4.140625 -10.691406 4.546875 -10.359375 C 4.953125 -10.023438 5.425781 -9.726562 5.96875 -9.46875 C 6.507812 -9.207031 6.945312 -9.003906 7.28125 -8.859375 C 7.613281 -8.710938 7.863281 -8.597656 8.03125 -8.515625 C 8.207031 -8.429688 8.441406 -8.300781 8.734375 -8.125 C 9.035156 -7.957031 9.265625 -7.800781 9.421875 -7.65625 C 9.585938 -7.519531 9.78125 -7.335938 10 -7.109375 C 10.226562 -6.878906 10.394531 -6.644531 10.5 -6.40625 C 10.78125 -5.832031 10.921875 -5.207031 10.921875 -4.53125 C 10.921875 -3.09375 10.453125 -1.925781 9.515625 -1.03125 C 8.585938 -0.144531 7.367188 0.296875 5.859375 0.296875 C 5.078125 0.296875 4.269531 0.1875 3.4375 -0.03125 C 2.601562 -0.257812 1.960938 -0.488281 1.515625 -0.71875 L 0.828125 -1.0625 C 0.960938 -1.46875 1.070312 -1.789062 1.15625 -2.03125 C 1.25 -2.28125 1.320312 -2.488281 1.375 -2.65625 C 1.4375 -2.832031 1.503906 -3.015625 1.578125 -3.203125 C 3.285156 -2.429688 4.859375 -2.046875 6.296875 -2.046875 Z M 6.296875 -2.046875 "/></g></g></g><g fill="#ff00ff" fill-opacity="1"><g transform="translate(157.452301, 292.150586)"><g><path d="M -0.09375 -15.546875 L 11.0625 -15.546875 L 11.0625 -13.265625 L 6.71875 -13.328125 L 6.765625 0 L 4.1875 0 L 4.25 -13.328125 L -0.09375 -13.265625 Z M -0.09375 -15.546875 "/></g></g></g><g fill="#ff00ff" fill-opacity="1"><g transform="translate(179.410126, 292.150586)"><g><path d="M 7.5625 0.296875 C 6.851562 0.296875 6.207031 0.222656 5.625 0.078125 C 5.050781 -0.0664062 4.492188 -0.316406 3.953125 -0.671875 C 3.421875 -1.035156 2.976562 -1.515625 2.625 -2.109375 C 1.820312 -3.398438 1.421875 -5.300781 1.421875 -7.8125 C 1.421875 -10.96875 2.03125 -13.125 3.25 -14.28125 C 3.84375 -14.84375 4.484375 -15.242188 5.171875 -15.484375 C 5.859375 -15.722656 6.65625 -15.84375 7.5625 -15.84375 C 8.46875 -15.84375 9.265625 -15.722656 9.953125 -15.484375 C 10.640625 -15.242188 11.28125 -14.84375 11.875 -14.28125 C 13.09375 -13.125 13.703125 -10.96875 13.703125 -7.8125 C 13.703125 -4.207031 12.859375 -1.828125 11.171875 -0.671875 C 10.222656 -0.0234375 9.019531 0.296875 7.5625 0.296875 Z M 5.359375 -2.59375 C 5.660156 -2.375 5.976562 -2.222656 6.3125 -2.140625 C 6.644531 -2.066406 7.148438 -2.03125 7.828125 -2.03125 C 8.515625 -2.03125 9.078125 -2.15625 9.515625 -2.40625 C 10.492188 -2.945312 10.984375 -4.726562 10.984375 -7.75 C 10.984375 -8.988281 10.925781 -9.984375 10.8125 -10.734375 C 10.695312 -11.492188 10.484375 -12.082031 10.171875 -12.5 C 9.867188 -12.914062 9.519531 -13.191406 9.125 -13.328125 C 8.738281 -13.460938 8.21875 -13.53125 7.5625 -13.53125 C 6.914062 -13.53125 6.394531 -13.460938 6 -13.328125 C 5.613281 -13.191406 5.269531 -12.914062 4.96875 -12.5 C 4.664062 -12.082031 4.453125 -11.492188 4.328125 -10.734375 C 4.210938 -9.984375 4.15625 -9.046875 4.15625 -7.921875 C 4.15625 -6.804688 4.195312 -5.90625 4.28125 -5.21875 C 4.375 -4.539062 4.503906 -3.988281 4.671875 -3.5625 C 4.835938 -3.144531 5.066406 -2.820312 5.359375 -2.59375 Z M 5.359375 -2.59375 "/></g></g></g><g fill="#ff00ff" fill-opacity="1"><g transform="translate(205.416028, 292.150586)"><g><path d="M 7.5625 -15.84375 C 11.132812 -15.84375 12.921875 -14.171875 12.921875 -10.828125 C 12.921875 -8.367188 11.835938 -6.835938 9.671875 -6.234375 L 9.671875 -6.125 L 13.3125 0 L 10.25 0 L 7.234375 -5.875 L 4.78125 -5.96875 L 4.78125 0 L 2.15625 0 L 2.265625 -7.296875 L 2.203125 -15.53125 C 3.859375 -15.738281 5.644531 -15.84375 7.5625 -15.84375 Z M 4.765625 -8.1875 C 5.929688 -8.050781 6.957031 -7.984375 7.84375 -7.984375 C 8.726562 -7.984375 9.34375 -8.203125 9.6875 -8.640625 C 10.039062 -9.078125 10.21875 -9.863281 10.21875 -11 C 10.21875 -12.132812 10.035156 -12.90625 9.671875 -13.3125 C 9.367188 -13.632812 8.726562 -13.796875 7.75 -13.796875 C 6.78125 -13.796875 5.789062 -13.726562 4.78125 -13.59375 Z M 4.765625 -8.1875 "/></g></g></g><g fill="#ff00ff" fill-opacity="1"><g transform="translate(231.132777, 292.150586)"><g><path d="M 2.15625 0 L 2.15625 -15.546875 L 10.5625 -15.546875 L 10.5625 -13.28125 L 4.765625 -13.34375 L 4.65625 -8.984375 L 10.015625 -8.984375 L 10.015625 -6.78125 L 4.65625 -6.78125 L 4.765625 -2.21875 L 10.5625 -2.265625 L 10.5625 0 Z M 2.15625 0 "/></g></g></g><g fill="#00ffff" fill-opacity="1"><g transform="translate(131.974786, 291.019258)"><g><path d="M 6.296875 -2.046875 C 7.597656 -2.046875 8.25 -2.757812 8.25 -4.1875 C 8.25 -4.789062 8.003906 -5.300781 7.515625 -5.71875 C 7.023438 -6.132812 6.347656 -6.535156 5.484375 -6.921875 C 4.617188 -7.316406 4.125 -7.546875 4 -7.609375 C 3.875 -7.679688 3.644531 -7.804688 3.3125 -7.984375 C 2.988281 -8.160156 2.765625 -8.304688 2.640625 -8.421875 C 2.515625 -8.546875 2.332031 -8.722656 2.09375 -8.953125 C 1.863281 -9.179688 1.707031 -9.414062 1.625 -9.65625 C 1.375 -10.289062 1.25 -10.914062 1.25 -11.53125 C 1.25 -12.789062 1.679688 -13.820312 2.546875 -14.625 C 3.410156 -15.4375 4.644531 -15.84375 6.25 -15.84375 C 7.425781 -15.84375 8.582031 -15.679688 9.71875 -15.359375 L 10.328125 -15.203125 L 9.90625 -13.015625 C 8.28125 -13.328125 7.039062 -13.484375 6.1875 -13.484375 C 5.34375 -13.484375 4.753906 -13.34375 4.421875 -13.0625 C 4.097656 -12.789062 3.9375 -12.351562 3.9375 -11.75 C 3.9375 -11.15625 4.140625 -10.691406 4.546875 -10.359375 C 4.953125 -10.023438 5.425781 -9.726562 5.96875 -9.46875 C 6.507812 -9.207031 6.945312 -9.003906 7.28125 -8.859375 C 7.613281 -8.710938 7.863281 -8.597656 8.03125 -8.515625 C 8.207031 -8.429688 8.441406 -8.300781 8.734375 -8.125 C 9.035156 -7.957031 9.265625 -7.800781 9.421875 -7.65625 C 9.585938 -7.519531 9.78125 -7.335938 10 -7.109375 C 10.226562 -6.878906 10.394531 -6.644531 10.5 -6.40625 C 10.78125 -5.832031 10.921875 -5.207031 10.921875 -4.53125 C 10.921875 -3.09375 10.453125 -1.925781 9.515625 -1.03125 C 8.585938 -0.144531 7.367188 0.296875 5.859375 0.296875 C 5.078125 0.296875 4.269531 0.1875 3.4375 -0.03125 C 2.601562 -0.257812 1.960938 -0.488281 1.515625 -0.71875 L 0.828125 -1.0625 C 0.960938 -1.46875 1.070312 -1.789062 1.15625 -2.03125 C 1.25 -2.28125 1.320312 -2.488281 1.375 -2.65625 C 1.4375 -2.832031 1.503906 -3.015625 1.578125 -3.203125 C 3.285156 -2.429688 4.859375 -2.046875 6.296875 -2.046875 Z M 6.296875 -2.046875 "/></g></g></g><g fill="#00ffff" fill-opacity="1"><g transform="translate(154.911265, 291.019258)"><g><path d="M -0.09375 -15.546875 L 11.0625 -15.546875 L 11.0625 -13.265625 L 6.71875 -13.328125 L 6.765625 0 L 4.1875 0 L 4.25 -13.328125 L -0.09375 -13.265625 Z M -0.09375 -15.546875 "/></g></g></g><g fill="#00ffff" fill-opacity="1"><g transform="translate(176.869091, 291.019258)"><g><path d="M 7.5625 0.296875 C 6.851562 0.296875 6.207031 0.222656 5.625 0.078125 C 5.050781 -0.0664062 4.492188 -0.316406 3.953125 -0.671875 C 3.421875 -1.035156 2.976562 -1.515625 2.625 -2.109375 C 1.820312 -3.398438 1.421875 -5.300781 1.421875 -7.8125 C 1.421875 -10.96875 2.03125 -13.125 3.25 -14.28125 C 3.84375 -14.84375 4.484375 -15.242188 5.171875 -15.484375 C 5.859375 -15.722656 6.65625 -15.84375 7.5625 -15.84375 C 8.46875 -15.84375 9.265625 -15.722656 9.953125 -15.484375 C 10.640625 -15.242188 11.28125 -14.84375 11.875 -14.28125 C 13.09375 -13.125 13.703125 -10.96875 13.703125 -7.8125 C 13.703125 -4.207031 12.859375 -1.828125 11.171875 -0.671875 C 10.222656 -0.0234375 9.019531 0.296875 7.5625 0.296875 Z M 5.359375 -2.59375 C 5.660156 -2.375 5.976562 -2.222656 6.3125 -2.140625 C 6.644531 -2.066406 7.148438 -2.03125 7.828125 -2.03125 C 8.515625 -2.03125 9.078125 -2.15625 9.515625 -2.40625 C 10.492188 -2.945312 10.984375 -4.726562 10.984375 -7.75 C 10.984375 -8.988281 10.925781 -9.984375 10.8125 -10.734375 C 10.695312 -11.492188 10.484375 -12.082031 10.171875 -12.5 C 9.867188 -12.914062 9.519531 -13.191406 9.125 -13.328125 C 8.738281 -13.460938 8.21875 -13.53125 7.5625 -13.53125 C 6.914062 -13.53125 6.394531 -13.460938 6 -13.328125 C 5.613281 -13.191406 5.269531 -12.914062 4.96875 -12.5 C 4.664062 -12.082031 4.453125 -11.492188 4.328125 -10.734375 C 4.210938 -9.984375 4.15625 -9.046875 4.15625 -7.921875 C 4.15625 -6.804688 4.195312 -5.90625 4.28125 -5.21875 C 4.375 -4.539062 4.503906 -3.988281 4.671875 -3.5625 C 4.835938 -3.144531 5.066406 -2.820312 5.359375 -2.59375 Z M 5.359375 -2.59375 "/></g></g></g><g fill="#00ffff" fill-opacity="1"><g transform="translate(202.874992, 291.019258)"><g><path d="M 7.5625 -15.84375 C 11.132812 -15.84375 12.921875 -14.171875 12.921875 -10.828125 C 12.921875 -8.367188 11.835938 -6.835938 9.671875 -6.234375 L 9.671875 -6.125 L 13.3125 0 L 10.25 0 L 7.234375 -5.875 L 4.78125 -5.96875 L 4.78125 0 L 2.15625 0 L 2.265625 -7.296875 L 2.203125 -15.53125 C 3.859375 -15.738281 5.644531 -15.84375 7.5625 -15.84375 Z M 4.765625 -8.1875 C 5.929688 -8.050781 6.957031 -7.984375 7.84375 -7.984375 C 8.726562 -7.984375 9.34375 -8.203125 9.6875 -8.640625 C 10.039062 -9.078125 10.21875 -9.863281 10.21875 -11 C 10.21875 -12.132812 10.035156 -12.90625 9.671875 -13.3125 C 9.367188 -13.632812 8.726562 -13.796875 7.75 -13.796875 C 6.78125 -13.796875 5.789062 -13.726562 4.78125 -13.59375 Z M 4.765625 -8.1875 "/></g></g></g><g fill="#00ffff" fill-opacity="1"><g transform="translate(228.591741, 291.019258)"><g><path d="M 2.15625 0 L 2.15625 -15.546875 L 10.5625 -15.546875 L 10.5625 -13.28125 L 4.765625 -13.34375 L 4.65625 -8.984375 L 10.015625 -8.984375 L 10.015625 -6.78125 L 4.65625 -6.78125 L 4.765625 -2.21875 L 10.5625 -2.265625 L 10.5625 0 Z M 2.15625 0 "/></g></g></g><g fill="#8c52ff" fill-opacity="1"><g transform="translate(133.245303, 291.584923)"><g><path d="M 6.296875 -2.046875 C 7.597656 -2.046875 8.25 -2.757812 8.25 -4.1875 C 8.25 -4.789062 8.003906 -5.300781 7.515625 -5.71875 C 7.023438 -6.132812 6.347656 -6.535156 5.484375 -6.921875 C 4.617188 -7.316406 4.125 -7.546875 4 -7.609375 C 3.875 -7.679688 3.644531 -7.804688 3.3125 -7.984375 C 2.988281 -8.160156 2.765625 -8.304688 2.640625 -8.421875 C 2.515625 -8.546875 2.332031 -8.722656 2.09375 -8.953125 C 1.863281 -9.179688 1.707031 -9.414062 1.625 -9.65625 C 1.375 -10.289062 1.25 -10.914062 1.25 -11.53125 C 1.25 -12.789062 1.679688 -13.820312 2.546875 -14.625 C 3.410156 -15.4375 4.644531 -15.84375 6.25 -15.84375 C 7.425781 -15.84375 8.582031 -15.679688 9.71875 -15.359375 L 10.328125 -15.203125 L 9.90625 -13.015625 C 8.28125 -13.328125 7.039062 -13.484375 6.1875 -13.484375 C 5.34375 -13.484375 4.753906 -13.34375 4.421875 -13.0625 C 4.097656 -12.789062 3.9375 -12.351562 3.9375 -11.75 C 3.9375 -11.15625 4.140625 -10.691406 4.546875 -10.359375 C 4.953125 -10.023438 5.425781 -9.726562 5.96875 -9.46875 C 6.507812 -9.207031 6.945312 -9.003906 7.28125 -8.859375 C 7.613281 -8.710938 7.863281 -8.597656 8.03125 -8.515625 C 8.207031 -8.429688 8.441406 -8.300781 8.734375 -8.125 C 9.035156 -7.957031 9.265625 -7.800781 9.421875 -7.65625 C 9.585938 -7.519531 9.78125 -7.335938 10 -7.109375 C 10.226562 -6.878906 10.394531 -6.644531 10.5 -6.40625 C 10.78125 -5.832031 10.921875 -5.207031 10.921875 -4.53125 C 10.921875 -3.09375 10.453125 -1.925781 9.515625 -1.03125 C 8.585938 -0.144531 7.367188 0.296875 5.859375 0.296875 C 5.078125 0.296875 4.269531 0.1875 3.4375 -0.03125 C 2.601562 -0.257812 1.960938 -0.488281 1.515625 -0.71875 L 0.828125 -1.0625 C 0.960938 -1.46875 1.070312 -1.789062 1.15625 -2.03125 C 1.25 -2.28125 1.320312 -2.488281 1.375 -2.65625 C 1.4375 -2.832031 1.503906 -3.015625 1.578125 -3.203125 C 3.285156 -2.429688 4.859375 -2.046875 6.296875 -2.046875 Z M 6.296875 -2.046875 "/></g></g></g><g fill="#8c52ff" fill-opacity="1"><g transform="translate(156.181781, 291.584923)"><g><path d="M -0.09375 -15.546875 L 11.0625 -15.546875 L 11.0625 -13.265625 L 6.71875 -13.328125 L 6.765625 0 L 4.1875 0 L 4.25 -13.328125 L -0.09375 -13.265625 Z M -0.09375 -15.546875 "/></g></g></g><g fill="#8c52ff" fill-opacity="1"><g transform="translate(178.139607, 291.584923)"><g><path d="M 7.5625 0.296875 C 6.851562 0.296875 6.207031 0.222656 5.625 0.078125 C 5.050781 -0.0664062 4.492188 -0.316406 3.953125 -0.671875 C 3.421875 -1.035156 2.976562 -1.515625 2.625 -2.109375 C 1.820312 -3.398438 1.421875 -5.300781 1.421875 -7.8125 C 1.421875 -10.96875 2.03125 -13.125 3.25 -14.28125 C 3.84375 -14.84375 4.484375 -15.242188 5.171875 -15.484375 C 5.859375 -15.722656 6.65625 -15.84375 7.5625 -15.84375 C 8.46875 -15.84375 9.265625 -15.722656 9.953125 -15.484375 C 10.640625 -15.242188 11.28125 -14.84375 11.875 -14.28125 C 13.09375 -13.125 13.703125 -10.96875 13.703125 -7.8125 C 13.703125 -4.207031 12.859375 -1.828125 11.171875 -0.671875 C 10.222656 -0.0234375 9.019531 0.296875 7.5625 0.296875 Z M 5.359375 -2.59375 C 5.660156 -2.375 5.976562 -2.222656 6.3125 -2.140625 C 6.644531 -2.066406 7.148438 -2.03125 7.828125 -2.03125 C 8.515625 -2.03125 9.078125 -2.15625 9.515625 -2.40625 C 10.492188 -2.945312 10.984375 -4.726562 10.984375 -7.75 C 10.984375 -8.988281 10.925781 -9.984375 10.8125 -10.734375 C 10.695312 -11.492188 10.484375 -12.082031 10.171875 -12.5 C 9.867188 -12.914062 9.519531 -13.191406 9.125 -13.328125 C 8.738281 -13.460938 8.21875 -13.53125 7.5625 -13.53125 C 6.914062 -13.53125 6.394531 -13.460938 6 -13.328125 C 5.613281 -13.191406 5.269531 -12.914062 4.96875 -12.5 C 4.664062 -12.082031 4.453125 -11.492188 4.328125 -10.734375 C 4.210938 -9.984375 4.15625 -9.046875 4.15625 -7.921875 C 4.15625 -6.804688 4.195312 -5.90625 4.28125 -5.21875 C 4.375 -4.539062 4.503906 -3.988281 4.671875 -3.5625 C 4.835938 -3.144531 5.066406 -2.820312 5.359375 -2.59375 Z M 5.359375 -2.59375 "/></g></g></g><g fill="#8c52ff" fill-opacity="1"><g transform="translate(204.145509, 291.584923)"><g><path d="M 7.5625 -15.84375 C 11.132812 -15.84375 12.921875 -14.171875 12.921875 -10.828125 C 12.921875 -8.367188 11.835938 -6.835938 9.671875 -6.234375 L 9.671875 -6.125 L 13.3125 0 L 10.25 0 L 7.234375 -5.875 L 4.78125 -5.96875 L 4.78125 0 L 2.15625 0 L 2.265625 -7.296875 L 2.203125 -15.53125 C 3.859375 -15.738281 5.644531 -15.84375 7.5625 -15.84375 Z M 4.765625 -8.1875 C 5.929688 -8.050781 6.957031 -7.984375 7.84375 -7.984375 C 8.726562 -7.984375 9.34375 -8.203125 9.6875 -8.640625 C 10.039062 -9.078125 10.21875 -9.863281 10.21875 -11 C 10.21875 -12.132812 10.035156 -12.90625 9.671875 -13.3125 C 9.367188 -13.632812 8.726562 -13.796875 7.75 -13.796875 C 6.78125 -13.796875 5.789062 -13.726562 4.78125 -13.59375 Z M 4.765625 -8.1875 "/></g></g></g><g fill="#8c52ff" fill-opacity="1"><g transform="translate(229.862258, 291.584923)"><g><path d="M 2.15625 0 L 2.15625 -15.546875 L 10.5625 -15.546875 L 10.5625 -13.28125 L 4.765625 -13.34375 L 4.65625 -8.984375 L 10.015625 -8.984375 L 10.015625 -6.78125 L 4.65625 -6.78125 L 4.765625 -2.21875 L 10.5625 -2.265625 L 10.5625 0 Z M 2.15625 0 "/></g></g></g></svg>