<svg xmlns="http://www.w3.org/2000/svg" xmlns:xlink="http://www.w3.org/1999/xlink" width="500" zoomAndPan="magnify" viewBox="0 0 375 374.999991" height="500" preserveAspectRatio="xMidYMid meet" version="1.0"><defs><clipPath id="9160448622"><path d="M 121.910156 112.5 L 253.160156 112.5 L 253.160156 262.5 L 121.910156 262.5 Z M 121.910156 112.5 " clip-rule="nonzero"/></clipPath></defs><g clip-path="url(#9160448622)"><path fill="#ffffff" d="M 174.804688 127.066406 C 171.390625 130.621094 168.785156 136.382812 168.785156 144.933594 L 168.785156 154.703125 L 206.285156 154.703125 L 206.285156 144.933594 C 206.285156 129.460938 196.453125 122.144531 187.414062 121.914062 C 182.796875 121.796875 178.234375 123.492188 174.804688 127.066406 Z M 215.660156 154.703125 L 215.660156 144.933594 C 215.660156 124.664062 202.054688 112.914062 187.652344 112.550781 C 180.554688 112.367188 173.398438 114.992188 168.039062 120.578125 C 162.660156 126.183594 159.410156 134.421875 159.410156 144.933594 L 159.410156 154.703125 L 121.910156 154.703125 L 121.910156 239.035156 C 121.910156 251.972656 132.402344 262.460938 145.347656 262.460938 L 229.722656 262.460938 C 242.664062 262.460938 253.160156 251.972656 253.160156 239.035156 L 253.160156 154.703125 Z M 206.285156 164.074219 L 206.285156 168.761719 L 215.660156 168.761719 L 215.660156 164.074219 L 243.785156 164.074219 L 243.785156 239.035156 C 243.785156 246.796875 237.488281 253.089844 229.722656 253.089844 L 145.347656 253.089844 C 137.582031 253.089844 131.285156 246.796875 131.285156 239.035156 L 131.285156 164.074219 L 159.410156 164.074219 L 159.410156 168.761719 L 168.785156 168.761719 L 168.785156 164.074219 Z M 206.285156 164.074219 " fill-opacity="1" fill-rule="evenodd"/></g></svg>